<svg xmlns="http://www.w3.org/2000/svg" xmlns:xlink="http://www.w3.org/1999/xlink" width="1000" zoomAndPan="magnify" viewBox="0 0 750 749.999995" height="1000" preserveAspectRatio="xMidYMid meet" version="1.0"><defs><g/><clipPath id="d6a07e4413"><rect x="0" width="246" y="0" height="66"/></clipPath><clipPath id="0ab909e9a0"><rect x="0" width="270" y="0" height="31"/></clipPath><clipPath id="4585011584"><rect x="0" width="162" y="0" height="139"/></clipPath></defs><g transform="matrix(1, 0, 0, 1, 162, 336)"><g clip-path="url(#d6a07e4413)"><g fill="#ffffff" fill-opacity="1"><g transform="translate(0.647046, 52.048652)"><g><path d="M 33.09375 -14.984375 C 33.007812 -15.347656 32.9375 -15.851562 32.875 -16.5 C 32.8125 -17.15625 32.75 -17.863281 32.6875 -18.625 C 32.625 -19.382812 32.578125 -20.117188 32.546875 -20.828125 C 32.523438 -21.546875 32.515625 -22.128906 32.515625 -22.578125 L 32.515625 -34.515625 C 32.203125 -34.992188 31.726562 -35.476562 31.09375 -35.96875 C 30.457031 -36.457031 29.742188 -36.835938 28.953125 -37.109375 L 29.5 -38.75 C 29.5625 -38.957031 29.789062 -39.0625 30.1875 -39.0625 C 30.882812 -39.03125 31.6875 -38.9375 32.59375 -38.78125 C 33.507812 -38.632812 34.390625 -38.460938 35.234375 -38.265625 C 36.085938 -38.066406 36.785156 -37.847656 37.328125 -37.609375 C 37.785156 -37.421875 38 -37.007812 37.96875 -36.375 L 37.796875 -33.6875 L 37.796875 -23.90625 C 37.796875 -23.050781 37.71875 -22.054688 37.5625 -20.921875 C 37.40625 -19.785156 37.207031 -18.6875 36.96875 -17.625 C 36.726562 -16.5625 36.457031 -15.679688 36.15625 -14.984375 Z M 29.40625 -24.21875 C 29.039062 -24.1875 28.578125 -24.101562 28.015625 -23.96875 C 27.460938 -23.832031 27.003906 -23.691406 26.640625 -23.546875 C 25.941406 -23.910156 25.3125 -24.3125 24.75 -24.75 C 24.1875 -25.1875 23.660156 -25.632812 23.171875 -26.09375 C 23.023438 -26.269531 22.976562 -26.46875 23.03125 -26.6875 L 23.5 -27.3125 C 24.039062 -27.28125 24.660156 -27.242188 25.359375 -27.203125 C 26.054688 -27.160156 26.691406 -27.140625 27.265625 -27.140625 Z M 34.421875 -24.359375 C 33.929688 -24.390625 33.351562 -24.394531 32.6875 -24.375 C 32.019531 -24.363281 31.390625 -24.347656 30.796875 -24.328125 C 30.203125 -24.316406 29.738281 -24.28125 29.40625 -24.21875 L 27.265625 -27.140625 C 27.816406 -27.140625 28.53125 -27.140625 29.40625 -27.140625 C 30.289062 -27.140625 31.195312 -27.160156 32.125 -27.203125 C 33.050781 -27.242188 33.816406 -27.296875 34.421875 -27.359375 Z M 15.25 -9.15625 C 15.039062 -9.457031 14.675781 -9.765625 14.15625 -10.078125 C 13.644531 -10.398438 13.144531 -10.65625 12.65625 -10.84375 L 13.015625 -12.203125 C 13.046875 -12.296875 13.113281 -12.363281 13.21875 -12.40625 C 13.332031 -12.445312 13.507812 -12.46875 13.75 -12.46875 C 14.289062 -12.5 14.972656 -12.476562 15.796875 -12.40625 C 16.617188 -12.332031 17.421875 -12.25 18.203125 -12.15625 C 18.992188 -12.0625 19.601562 -11.957031 20.03125 -11.84375 C 20.425781 -11.71875 20.625 -11.394531 20.625 -10.875 L 20.578125 -8.734375 Z M 36.796875 0.140625 L 32.234375 0.140625 L 32.234375 -10.46875 L 37.421875 -9.96875 L 37.421875 -4.1875 C 37.421875 -3.457031 37.359375 -2.679688 37.234375 -1.859375 C 37.117188 -1.046875 36.972656 -0.378906 36.796875 0.140625 Z M 32.640625 -4.375 L 19.984375 -4.234375 L 19.984375 -7.328125 L 32.640625 -7.46875 Z M 16.125 4.78125 C 15.90625 4.289062 15.734375 3.742188 15.609375 3.140625 C 15.492188 2.535156 15.4375 2.003906 15.4375 1.546875 L 15.25 -9.15625 L 20.578125 -8.921875 L 20.4375 0.8125 C 20.46875 1.90625 20.320312 2.765625 20 3.390625 C 19.6875 4.015625 19.347656 4.476562 18.984375 4.78125 Z M 37.875 0.546875 C 38.15625 0.671875 38.296875 0.882812 38.296875 1.1875 C 38.296875 2.09375 38.113281 2.773438 37.75 3.234375 C 36.957031 3.234375 35.976562 3.234375 34.8125 3.234375 C 33.644531 3.234375 32.375 3.234375 31 3.234375 C 29.632812 3.234375 28.257812 3.238281 26.875 3.25 C 25.5 3.269531 24.203125 3.285156 22.984375 3.296875 C 21.773438 3.316406 20.742188 3.328125 19.890625 3.328125 L 20.171875 0.140625 L 33.609375 0.046875 L 36.515625 -0.046875 Z M 19.9375 -32.6875 C 19.695312 -33.019531 19.34375 -33.347656 18.875 -33.671875 C 18.40625 -33.992188 17.894531 -34.257812 17.34375 -34.46875 L 17.84375 -35.828125 C 17.90625 -35.953125 17.984375 -36.035156 18.078125 -36.078125 C 18.171875 -36.128906 18.335938 -36.15625 18.578125 -36.15625 C 19.117188 -36.125 19.789062 -36.046875 20.59375 -35.921875 C 21.40625 -35.796875 22.191406 -35.65625 22.953125 -35.5 C 23.710938 -35.351562 24.285156 -35.191406 24.671875 -35.015625 C 25.097656 -34.890625 25.296875 -34.570312 25.265625 -34.0625 L 25.140625 -31.640625 Z M 5.375 -30.640625 C 5.15625 -30.941406 4.785156 -31.25 4.265625 -31.5625 C 3.753906 -31.882812 3.257812 -32.125 2.78125 -32.28125 L 3.140625 -33.640625 C 3.171875 -33.734375 3.238281 -33.8125 3.34375 -33.875 C 3.445312 -33.9375 3.625 -33.96875 3.875 -33.96875 C 4.414062 -33.96875 5.085938 -33.9375 5.890625 -33.875 C 6.703125 -33.8125 7.5 -33.726562 8.28125 -33.625 C 9.070312 -33.519531 9.679688 -33.40625 10.109375 -33.28125 C 10.503906 -33.1875 10.703125 -32.867188 10.703125 -32.328125 L 10.609375 -30.234375 Z M 6.28125 -14.75 C 6.101562 -15.207031 5.953125 -15.757812 5.828125 -16.40625 C 5.703125 -17.0625 5.640625 -17.617188 5.640625 -18.078125 L 5.375 -30.640625 L 10.609375 -30.421875 L 10.515625 -18.796875 C 10.546875 -17.679688 10.410156 -16.800781 10.109375 -16.15625 C 9.804688 -15.519531 9.472656 -15.050781 9.109375 -14.75 Z M 24.359375 -19.625 L 19.9375 -19.625 L 19.9375 -32.6875 L 25.140625 -32.046875 L 25 -24.171875 C 25 -23.410156 24.9375 -22.597656 24.8125 -21.734375 C 24.6875 -20.867188 24.535156 -20.164062 24.359375 -19.625 Z M 20.71875 -25.140625 L 9.609375 -25 L 9.609375 -28.09375 L 20.71875 -28.1875 Z M 25.3125 -19.34375 C 25.550781 -19.289062 25.671875 -19.109375 25.671875 -18.796875 C 25.671875 -18.378906 25.617188 -17.972656 25.515625 -17.578125 C 25.410156 -17.179688 25.269531 -16.90625 25.09375 -16.75 C 24.425781 -16.75 23.597656 -16.75 22.609375 -16.75 C 21.617188 -16.75 20.554688 -16.75 19.421875 -16.75 C 18.285156 -16.75 17.140625 -16.738281 15.984375 -16.71875 C 14.828125 -16.707031 13.738281 -16.695312 12.71875 -16.6875 C 11.707031 -16.675781 10.835938 -16.65625 10.109375 -16.625 L 10.375 -19.765625 L 20.671875 -19.859375 L 23.71875 -19.9375 Z M 32.234375 -10.46875 C 31.992188 -10.800781 31.613281 -11.132812 31.09375 -11.46875 C 30.582031 -11.800781 30.050781 -12.078125 29.5 -12.296875 L 30.046875 -13.75 C 30.078125 -13.84375 30.144531 -13.914062 30.25 -13.96875 C 30.363281 -14.03125 30.523438 -14.050781 30.734375 -14.03125 C 31.304688 -14 32.003906 -13.921875 32.828125 -13.796875 C 33.648438 -13.671875 34.445312 -13.53125 35.21875 -13.375 C 35.988281 -13.226562 36.585938 -13.066406 37.015625 -12.890625 C 37.441406 -12.734375 37.625 -12.410156 37.5625 -11.921875 L 37.421875 -9.796875 Z M 32.234375 -10.46875 "/></g></g></g><g fill="#ffffff" fill-opacity="1"><g transform="translate(49.408608, 52.048652)"><g><path d="M 34.421875 -21.03125 L 14.0625 -20.71875 L 15.484375 -23.546875 C 16.085938 -23.546875 16.851562 -23.546875 17.78125 -23.546875 C 18.707031 -23.546875 19.722656 -23.550781 20.828125 -23.5625 C 21.941406 -23.570312 23.039062 -23.582031 24.125 -23.59375 C 25.21875 -23.613281 26.226562 -23.640625 27.15625 -23.671875 C 28.082031 -23.703125 28.820312 -23.734375 29.375 -23.765625 L 30.734375 -24.5 C 31.398438 -24.53125 32.164062 -24.503906 33.03125 -24.421875 C 33.894531 -24.347656 34.554688 -24.265625 35.015625 -24.171875 C 35.492188 -24.054688 35.734375 -23.785156 35.734375 -23.359375 C 35.734375 -22.804688 35.671875 -22.347656 35.546875 -21.984375 C 35.429688 -21.617188 35.300781 -21.378906 35.15625 -21.265625 C 35 -21.109375 34.753906 -21.03125 34.421875 -21.03125 Z M 14.0625 -20.71875 C 12.726562 -20.75 11.769531 -21.03125 11.1875 -21.5625 C 10.613281 -22.09375 10.328125 -22.921875 10.328125 -24.046875 L 10.328125 -26.265625 L 15.65625 -26.265625 L 15.65625 -24.40625 C 15.65625 -23.832031 15.945312 -23.546875 16.53125 -23.546875 Z M 15.65625 -25.09375 L 10.328125 -25.09375 L 10.328125 -26.859375 C 10.023438 -27.160156 9.640625 -27.441406 9.171875 -27.703125 C 8.703125 -27.960938 8.207031 -28.179688 7.6875 -28.359375 L 7.921875 -29.5 C 7.984375 -29.71875 8.148438 -29.828125 8.421875 -29.828125 C 9.023438 -29.828125 9.804688 -29.816406 10.765625 -29.796875 C 11.722656 -29.785156 12.671875 -29.753906 13.609375 -29.703125 C 14.554688 -29.660156 15.269531 -29.609375 15.75 -29.546875 L 15.65625 -26.90625 Z M 29.140625 -33.140625 C 28.648438 -33.140625 27.957031 -33.140625 27.0625 -33.140625 C 26.164062 -33.140625 25.171875 -33.128906 24.078125 -33.109375 C 22.992188 -33.097656 21.921875 -33.085938 20.859375 -33.078125 C 19.796875 -33.066406 18.851562 -33.050781 18.03125 -33.03125 C 17.207031 -33.019531 16.613281 -33 16.25 -32.96875 C 15.738281 -32.9375 15.078125 -32.851562 14.265625 -32.71875 C 13.460938 -32.582031 12.742188 -32.4375 12.109375 -32.28125 C 11.347656 -32.644531 10.609375 -33.066406 9.890625 -33.546875 C 9.179688 -34.035156 8.539062 -34.523438 7.96875 -35.015625 C 7.78125 -35.191406 7.734375 -35.390625 7.828125 -35.609375 L 8.203125 -36.25 C 8.867188 -36.125 9.675781 -36.015625 10.625 -35.921875 C 11.582031 -35.828125 12.351562 -35.78125 12.9375 -35.78125 C 13.382812 -35.78125 14.144531 -35.78125 15.21875 -35.78125 C 16.300781 -35.78125 17.523438 -35.796875 18.890625 -35.828125 C 20.253906 -35.859375 21.628906 -35.890625 23.015625 -35.921875 C 24.398438 -35.953125 25.632812 -35.972656 26.71875 -35.984375 C 27.8125 -36.003906 28.617188 -36.03125 29.140625 -36.0625 Z M 33.734375 -33.46875 L 28.140625 -33.140625 L 29.046875 -36.0625 L 30.828125 -36.828125 C 31.128906 -36.953125 31.429688 -36.953125 31.734375 -36.828125 C 32.097656 -36.679688 32.550781 -36.476562 33.09375 -36.21875 C 33.644531 -35.957031 34.054688 -35.753906 34.328125 -35.609375 C 34.566406 -35.421875 34.597656 -35.160156 34.421875 -34.828125 Z M 28 -29.875 C 28.0625 -30.113281 28.097656 -30.453125 28.109375 -30.890625 C 28.128906 -31.328125 28.144531 -31.757812 28.15625 -32.1875 C 28.175781 -32.613281 28.171875 -32.929688 28.140625 -33.140625 L 33.734375 -33.5625 C 33.671875 -33.039062 33.523438 -32.398438 33.296875 -31.640625 C 33.078125 -30.878906 32.859375 -30.289062 32.640625 -29.875 Z M 33.328125 -27.140625 L 14.75 -26.90625 L 14.75 -29.546875 C 15.269531 -29.546875 15.960938 -29.546875 16.828125 -29.546875 C 17.691406 -29.546875 18.640625 -29.550781 19.671875 -29.5625 C 20.703125 -29.582031 21.722656 -29.597656 22.734375 -29.609375 C 23.753906 -29.628906 24.664062 -29.65625 25.46875 -29.6875 C 26.28125 -29.71875 26.878906 -29.75 27.265625 -29.78125 L 28.734375 -30.140625 C 29.640625 -30.328125 30.363281 -30.421875 30.90625 -30.421875 C 31.457031 -30.421875 31.898438 -30.328125 32.234375 -30.140625 L 33.5625 -29.453125 C 33.800781 -29.335938 33.921875 -29.15625 33.921875 -28.90625 C 33.921875 -28.539062 33.859375 -28.191406 33.734375 -27.859375 C 33.617188 -27.523438 33.484375 -27.285156 33.328125 -27.140625 Z M 36.703125 -19.34375 C 37.335938 -19.320312 38.023438 -19.265625 38.765625 -19.171875 C 39.515625 -19.078125 40.226562 -18.96875 40.90625 -18.84375 C 41.59375 -18.726562 42.117188 -18.59375 42.484375 -18.4375 C 42.992188 -18.257812 43.25 -17.925781 43.25 -17.4375 C 43.25 -16.925781 43.097656 -16.445312 42.796875 -16 C 42.492188 -15.5625 42.191406 -15.28125 41.890625 -15.15625 C 41.523438 -15.21875 40.96875 -15.265625 40.21875 -15.296875 C 39.476562 -15.328125 38.726562 -15.347656 37.96875 -15.359375 C 37.207031 -15.378906 36.585938 -15.390625 36.109375 -15.390625 C 35.585938 -15.390625 34.679688 -15.378906 33.390625 -15.359375 C 32.109375 -15.347656 30.609375 -15.332031 28.890625 -15.3125 C 27.171875 -15.300781 25.394531 -15.285156 23.5625 -15.265625 C 21.726562 -15.253906 19.957031 -15.234375 18.25 -15.203125 C 16.550781 -15.171875 15.09375 -15.140625 13.875 -15.109375 C 12.664062 -15.085938 11.835938 -15.0625 11.390625 -15.03125 C 10.992188 -15 10.46875 -14.925781 9.8125 -14.8125 C 9.15625 -14.707031 8.5 -14.585938 7.84375 -14.453125 C 7.195312 -14.316406 6.660156 -14.1875 6.234375 -14.0625 C 5.328125 -14.394531 4.414062 -14.847656 3.5 -15.421875 C 2.59375 -16.003906 1.804688 -16.570312 1.140625 -17.125 C 0.953125 -17.300781 0.90625 -17.507812 1 -17.75 L 1.40625 -18.53125 C 2.320312 -18.40625 3.3125 -18.296875 4.375 -18.203125 C 5.4375 -18.117188 6.390625 -18.0625 7.234375 -18.03125 C 7.660156 -18.03125 8.421875 -18.03125 9.515625 -18.03125 C 10.609375 -18.03125 11.910156 -18.035156 13.421875 -18.046875 C 14.941406 -18.066406 16.566406 -18.082031 18.296875 -18.09375 C 20.035156 -18.113281 21.769531 -18.140625 23.5 -18.171875 C 25.226562 -18.203125 26.863281 -18.226562 28.40625 -18.25 C 29.957031 -18.28125 31.285156 -18.316406 32.390625 -18.359375 C 33.503906 -18.410156 34.285156 -18.453125 34.734375 -18.484375 Z M 35.46875 4.546875 L 15.296875 4.6875 L 16.84375 1.6875 C 17.425781 1.6875 18.160156 1.6875 19.046875 1.6875 C 19.941406 1.6875 20.921875 1.6875 21.984375 1.6875 C 23.046875 1.6875 24.09375 1.6875 25.125 1.6875 C 26.164062 1.6875 27.132812 1.675781 28.03125 1.65625 C 28.925781 1.644531 29.660156 1.625 30.234375 1.59375 L 31.6875 0.859375 C 32.382812 0.859375 33.179688 0.894531 34.078125 0.96875 C 34.972656 1.050781 35.664062 1.15625 36.15625 1.28125 C 36.632812 1.394531 36.875 1.695312 36.875 2.1875 C 36.875 2.695312 36.804688 3.140625 36.671875 3.515625 C 36.535156 3.898438 36.40625 4.15625 36.28125 4.28125 C 36.132812 4.457031 35.863281 4.546875 35.46875 4.546875 Z M 15.296875 4.6875 C 13.722656 4.65625 12.613281 4.359375 11.96875 3.796875 C 11.332031 3.234375 11.015625 2.378906 11.015625 1.234375 L 11.015625 -1.046875 L 16.34375 -1.046875 L 16.34375 0.8125 C 16.34375 1.394531 16.617188 1.6875 17.171875 1.6875 Z M 16.34375 -0.046875 L 11.015625 -0.046875 L 11.015625 -1.953125 C 10.710938 -2.253906 10.332031 -2.535156 9.875 -2.796875 C 9.425781 -3.054688 8.941406 -3.265625 8.421875 -3.421875 L 8.609375 -4.59375 C 8.671875 -4.78125 8.851562 -4.875 9.15625 -4.875 C 9.726562 -4.875 10.484375 -4.863281 11.421875 -4.84375 C 12.367188 -4.832031 13.3125 -4.8125 14.25 -4.78125 C 15.1875 -4.75 15.914062 -4.703125 16.4375 -4.640625 L 16.34375 -1.828125 Z M 29.375 -8.15625 C 28.914062 -8.15625 28.253906 -8.15625 27.390625 -8.15625 C 26.523438 -8.15625 25.550781 -8.15625 24.46875 -8.15625 C 23.394531 -8.15625 22.328125 -8.144531 21.265625 -8.125 C 20.203125 -8.113281 19.257812 -8.097656 18.4375 -8.078125 C 17.613281 -8.066406 17.023438 -8.046875 16.671875 -8.015625 C 16.148438 -7.984375 15.492188 -7.898438 14.703125 -7.765625 C 13.910156 -7.628906 13.210938 -7.484375 12.609375 -7.328125 C 11.878906 -7.691406 11.15625 -8.113281 10.4375 -8.59375 C 9.726562 -9.082031 9.101562 -9.570312 8.5625 -10.0625 C 8.375 -10.238281 8.328125 -10.421875 8.421875 -10.609375 L 8.78125 -11.296875 C 9.457031 -11.171875 10.253906 -11.0625 11.171875 -10.96875 C 12.097656 -10.882812 12.851562 -10.84375 13.4375 -10.84375 C 13.882812 -10.84375 14.640625 -10.84375 15.703125 -10.84375 C 16.765625 -10.84375 17.976562 -10.847656 19.34375 -10.859375 C 20.71875 -10.867188 22.078125 -10.878906 23.421875 -10.890625 C 24.773438 -10.910156 25.984375 -10.9375 27.046875 -10.96875 C 28.109375 -11 28.882812 -11.03125 29.375 -11.0625 Z M 33.875 -8.375 L 28.59375 -8.203125 L 29.328125 -11.0625 L 31 -11.796875 C 31.25 -11.910156 31.539062 -11.910156 31.875 -11.796875 C 32.207031 -11.671875 32.660156 -11.484375 33.234375 -11.234375 C 33.816406 -10.992188 34.226562 -10.816406 34.46875 -10.703125 C 34.675781 -10.546875 34.722656 -10.285156 34.609375 -9.921875 Z M 28.5 -4.828125 C 28.53125 -5.035156 28.550781 -5.367188 28.5625 -5.828125 C 28.582031 -6.285156 28.597656 -6.734375 28.609375 -7.171875 C 28.628906 -7.609375 28.625 -7.953125 28.59375 -8.203125 L 33.875 -8.375 C 33.84375 -7.894531 33.71875 -7.28125 33.5 -6.53125 C 33.289062 -5.789062 33.113281 -5.222656 32.96875 -4.828125 Z M 33.609375 -2 L 15.84375 -1.828125 L 15.84375 -4.640625 C 16.332031 -4.640625 16.976562 -4.640625 17.78125 -4.640625 C 18.582031 -4.640625 19.460938 -4.644531 20.421875 -4.65625 C 21.378906 -4.675781 22.332031 -4.6875 23.28125 -4.6875 C 24.238281 -4.6875 25.085938 -4.691406 25.828125 -4.703125 C 26.578125 -4.722656 27.148438 -4.75 27.546875 -4.78125 L 28.90625 -5.09375 C 30.550781 -5.457031 31.769531 -5.441406 32.5625 -5.046875 L 33.828125 -4.46875 C 34.066406 -4.3125 34.1875 -4.128906 34.1875 -3.921875 C 34.1875 -3.523438 34.117188 -3.144531 33.984375 -2.78125 C 33.847656 -2.414062 33.722656 -2.15625 33.609375 -2 Z M 26.046875 -9.65625 C 25.859375 -10.164062 25.71875 -10.816406 25.625 -11.609375 C 25.539062 -12.398438 25.5 -13.097656 25.5 -13.703125 L 25.5 -16.671875 L 30.59375 -16.671875 L 30.59375 -14.703125 C 30.59375 -13.796875 30.472656 -12.867188 30.234375 -11.921875 C 29.992188 -10.984375 29.691406 -10.226562 29.328125 -9.65625 Z M 14.53125 -9.25 C 14.34375 -9.789062 14.195312 -10.445312 14.09375 -11.21875 C 13.988281 -12 13.9375 -12.707031 13.9375 -13.34375 L 13.9375 -16.34375 L 19.078125 -16.34375 L 19.078125 -14.296875 C 19.078125 -13.410156 18.953125 -12.488281 18.703125 -11.53125 C 18.460938 -10.582031 18.144531 -9.820312 17.75 -9.25 Z M 14.53125 -9.25 "/></g></g></g><g fill="#ffffff" fill-opacity="1"><g transform="translate(98.170171, 52.048652)"><g><path d="M 12.703125 -29.09375 C 12.492188 -29.550781 12.132812 -30.015625 11.625 -30.484375 C 11.125 -30.953125 10.585938 -31.335938 10.015625 -31.640625 L 10.703125 -33.015625 C 10.816406 -33.191406 11.046875 -33.265625 11.390625 -33.234375 C 12.054688 -33.171875 12.820312 -33.035156 13.6875 -32.828125 C 14.550781 -32.617188 15.382812 -32.382812 16.1875 -32.125 C 16.988281 -31.863281 17.601562 -31.613281 18.03125 -31.375 C 18.539062 -31.101562 18.796875 -30.738281 18.796875 -30.28125 Z M 0.90625 -8.15625 C 0.757812 -8.300781 0.789062 -8.492188 1 -8.734375 C 3.09375 -10.835938 4.941406 -13.035156 6.546875 -15.328125 C 8.160156 -17.617188 9.488281 -19.9375 10.53125 -22.28125 C 11.582031 -24.632812 12.304688 -26.90625 12.703125 -29.09375 L 18.796875 -30.28125 C 18.796875 -29.789062 18.753906 -29.378906 18.671875 -29.046875 C 18.179688 -26.585938 17.222656 -24.066406 15.796875 -21.484375 C 14.367188 -18.910156 12.53125 -16.414062 10.28125 -14 C 8.039062 -11.582031 5.445312 -9.390625 2.5 -7.421875 C 2.257812 -7.296875 2.035156 -7.296875 1.828125 -7.421875 Z M 21.765625 -9.875 L 12.703125 -20.171875 L 20.53125 -16.703125 L 23.171875 -15.625 C 23.566406 -15.039062 23.976562 -14.347656 24.40625 -13.546875 C 24.832031 -12.742188 25.148438 -12.097656 25.359375 -11.609375 C 25.546875 -11.179688 25.644531 -10.816406 25.65625 -10.515625 C 25.664062 -10.210938 25.628906 -9.957031 25.546875 -9.75 C 25.328125 -9.320312 24.953125 -9.015625 24.421875 -8.828125 C 23.890625 -8.648438 23.425781 -8.632812 23.03125 -8.78125 C 22.851562 -8.84375 22.640625 -8.988281 22.390625 -9.21875 C 22.148438 -9.445312 21.941406 -9.664062 21.765625 -9.875 Z M 20.53125 -16.703125 L 20.171875 -16.296875 L 12.703125 -20.171875 L 14.53125 -23 Z M 42.03125 -17.03125 L 33.640625 -16.796875 L 33.640625 -19.984375 L 37.375 -20.21875 L 38.84375 -21.171875 C 39.507812 -21.203125 40.257812 -21.191406 41.09375 -21.140625 C 41.925781 -21.097656 42.539062 -21.03125 42.9375 -20.9375 C 43.539062 -20.789062 43.859375 -20.441406 43.890625 -19.890625 C 43.953125 -19.378906 43.921875 -18.898438 43.796875 -18.453125 C 43.679688 -18.015625 43.53125 -17.707031 43.34375 -17.53125 C 43.21875 -17.34375 43.019531 -17.210938 42.75 -17.140625 C 42.476562 -17.066406 42.238281 -17.03125 42.03125 -17.03125 Z M 30.1875 5.015625 C 30.125 4.585938 30.054688 3.929688 29.984375 3.046875 C 29.910156 2.171875 29.84375 1.207031 29.78125 0.15625 C 29.71875 -0.882812 29.675781 -1.875 29.65625 -2.8125 C 29.644531 -3.757812 29.640625 -4.503906 29.640625 -5.046875 L 29.640625 -34.46875 C 29.273438 -34.976562 28.765625 -35.476562 28.109375 -35.96875 C 27.460938 -36.457031 26.726562 -36.851562 25.90625 -37.15625 L 26.453125 -38.75 C 26.515625 -38.84375 26.582031 -38.914062 26.65625 -38.96875 C 26.726562 -39.03125 26.890625 -39.0625 27.140625 -39.0625 C 27.867188 -39.03125 28.6875 -38.9375 29.59375 -38.78125 C 30.507812 -38.632812 31.40625 -38.460938 32.28125 -38.265625 C 33.164062 -38.066406 33.878906 -37.847656 34.421875 -37.609375 C 34.910156 -37.421875 35.140625 -37.007812 35.109375 -36.375 L 34.875 -33.609375 L 34.875 -6.6875 C 34.875 -5.9375 34.835938 -5.050781 34.765625 -4.03125 C 34.691406 -3.007812 34.578125 -1.953125 34.421875 -0.859375 C 34.265625 0.234375 34.082031 1.296875 33.875 2.328125 C 33.664062 3.359375 33.421875 4.253906 33.140625 5.015625 Z M 30.1875 5.015625 "/></g></g></g><g fill="#ffffff" fill-opacity="1"><g transform="translate(146.931734, 52.048652)"><g><path d="M 36.703125 -16.203125 C 37.335938 -16.203125 38.023438 -16.15625 38.765625 -16.0625 C 39.515625 -15.976562 40.226562 -15.875 40.90625 -15.75 C 41.59375 -15.632812 42.117188 -15.5 42.484375 -15.34375 C 42.992188 -15.164062 43.25 -14.816406 43.25 -14.296875 C 43.25 -13.722656 43.097656 -13.195312 42.796875 -12.71875 C 42.492188 -12.25 42.191406 -11.957031 41.890625 -11.84375 C 41.523438 -11.894531 40.96875 -11.9375 40.21875 -11.96875 C 39.476562 -12 38.726562 -12.019531 37.96875 -12.03125 C 37.207031 -12.050781 36.585938 -12.0625 36.109375 -12.0625 C 35.585938 -12.0625 34.679688 -12.050781 33.390625 -12.03125 C 32.109375 -12.019531 30.613281 -12.003906 28.90625 -11.984375 C 27.207031 -11.972656 25.441406 -11.957031 23.609375 -11.9375 C 21.773438 -11.925781 20.015625 -11.90625 18.328125 -11.875 C 16.640625 -11.851562 15.179688 -11.828125 13.953125 -11.796875 C 12.722656 -11.765625 11.878906 -11.734375 11.421875 -11.703125 C 11.035156 -11.671875 10.503906 -11.601562 9.828125 -11.5 C 9.160156 -11.394531 8.5 -11.28125 7.84375 -11.15625 C 7.195312 -11.03125 6.660156 -10.910156 6.234375 -10.796875 C 5.328125 -11.128906 4.414062 -11.597656 3.5 -12.203125 C 2.59375 -12.804688 1.804688 -13.414062 1.140625 -14.03125 C 0.953125 -14.207031 0.90625 -14.398438 1 -14.609375 L 1.40625 -15.4375 C 2.320312 -15.28125 3.3125 -15.15625 4.375 -15.0625 C 5.4375 -14.976562 6.390625 -14.921875 7.234375 -14.890625 C 7.691406 -14.890625 8.457031 -14.890625 9.53125 -14.890625 C 10.613281 -14.890625 11.910156 -14.894531 13.421875 -14.90625 C 14.941406 -14.925781 16.566406 -14.953125 18.296875 -14.984375 C 20.035156 -15.015625 21.769531 -15.039062 23.5 -15.0625 C 25.226562 -15.09375 26.859375 -15.125 28.390625 -15.15625 C 29.921875 -15.1875 31.25 -15.21875 32.375 -15.25 C 33.5 -15.28125 34.285156 -15.3125 34.734375 -15.34375 Z M 20.171875 4.78125 C 20.078125 4.289062 20 3.632812 19.9375 2.8125 C 19.882812 2 19.828125 1.128906 19.765625 0.203125 C 19.703125 -0.722656 19.65625 -1.609375 19.625 -2.453125 C 19.59375 -3.304688 19.578125 -4.003906 19.578125 -4.546875 L 19.578125 -13.703125 L 24.859375 -13.703125 L 24.859375 -6.140625 C 24.859375 -5.441406 24.804688 -4.597656 24.703125 -3.609375 C 24.597656 -2.628906 24.46875 -1.613281 24.3125 -0.5625 C 24.164062 0.476562 23.984375 1.460938 23.765625 2.390625 C 23.554688 3.316406 23.328125 4.113281 23.078125 4.78125 Z M 10.0625 -32.046875 C 9.757812 -32.410156 9.347656 -32.753906 8.828125 -33.078125 C 8.316406 -33.398438 7.785156 -33.648438 7.234375 -33.828125 L 7.65625 -35.328125 C 7.707031 -35.515625 7.890625 -35.609375 8.203125 -35.609375 C 8.804688 -35.609375 9.546875 -35.578125 10.421875 -35.515625 C 11.304688 -35.453125 12.203125 -35.375 13.109375 -35.28125 C 14.023438 -35.195312 14.800781 -35.09375 15.4375 -34.96875 L 15.53125 -31.734375 Z M 11.609375 -18.34375 C 11.460938 -18.800781 11.316406 -19.316406 11.171875 -19.890625 C 11.035156 -20.472656 10.9375 -21.019531 10.875 -21.53125 L 10.0625 -32.09375 L 15.578125 -32.46875 L 15.578125 -22.21875 C 15.609375 -21.3125 15.523438 -20.566406 15.328125 -19.984375 C 15.128906 -19.410156 14.816406 -18.863281 14.390625 -18.34375 Z M 29.046875 -31.875 C 27.648438 -31.90625 26.160156 -31.910156 24.578125 -31.890625 C 23.003906 -31.878906 21.4375 -31.859375 19.875 -31.828125 C 18.3125 -31.796875 16.832031 -31.765625 15.4375 -31.734375 L 15.390625 -34.96875 C 16.179688 -34.96875 17.191406 -34.96875 18.421875 -34.96875 C 19.648438 -34.96875 20.9375 -34.984375 22.28125 -35.015625 C 23.632812 -35.046875 24.925781 -35.078125 26.15625 -35.109375 C 27.382812 -35.140625 28.378906 -35.171875 29.140625 -35.203125 Z M 34.46875 -32.046875 L 28.90625 -31.875 L 29 -35.15625 L 31.140625 -36.109375 C 31.472656 -36.222656 31.789062 -36.222656 32.09375 -36.109375 C 32.488281 -35.953125 33.015625 -35.726562 33.671875 -35.4375 C 34.328125 -35.15625 34.789062 -34.921875 35.0625 -34.734375 C 35.269531 -34.617188 35.316406 -34.378906 35.203125 -34.015625 Z M 33.0625 -23.546875 L 28.640625 -23.546875 L 28.90625 -31.875 L 34.46875 -32.09375 C 34.34375 -30.726562 34.160156 -29.285156 33.921875 -27.765625 C 33.679688 -26.253906 33.394531 -24.847656 33.0625 -23.546875 Z M 33.734375 -20.21875 L 15.109375 -20.125 L 15.25 -23.359375 C 16.164062 -23.359375 17.191406 -23.347656 18.328125 -23.328125 C 19.460938 -23.316406 20.617188 -23.3125 21.796875 -23.3125 C 22.984375 -23.3125 24.113281 -23.328125 25.1875 -23.359375 C 26.269531 -23.390625 27.191406 -23.421875 27.953125 -23.453125 L 29.40625 -23.8125 C 30.78125 -24.300781 31.875 -24.285156 32.6875 -23.765625 L 34.015625 -23.078125 C 34.285156 -22.929688 34.421875 -22.707031 34.421875 -22.40625 C 34.421875 -21.945312 34.351562 -21.507812 34.21875 -21.09375 C 34.082031 -20.6875 33.921875 -20.394531 33.734375 -20.21875 Z M 33.734375 -20.21875 "/></g></g></g><g fill="#ffffff" fill-opacity="1"><g transform="translate(195.693297, 52.048652)"><g><path d="M 20.53125 -31.140625 C 20.320312 -31.566406 19.976562 -32 19.5 -32.4375 C 19.03125 -32.875 18.523438 -33.25 17.984375 -33.5625 L 18.765625 -34.875 C 18.910156 -35.113281 19.148438 -35.207031 19.484375 -35.15625 C 20.273438 -35.03125 21.09375 -34.835938 21.9375 -34.578125 C 22.789062 -34.316406 23.613281 -34.039062 24.40625 -33.75 C 25.195312 -33.46875 25.800781 -33.175781 26.21875 -32.875 C 26.769531 -32.539062 27.046875 -32.160156 27.046875 -31.734375 Z M 4.046875 -14.109375 C 3.929688 -14.328125 3.992188 -14.492188 4.234375 -14.609375 C 6.878906 -16.160156 9.269531 -17.832031 11.40625 -19.625 C 13.539062 -21.414062 15.382812 -23.289062 16.9375 -25.25 C 18.488281 -27.207031 19.6875 -29.171875 20.53125 -31.140625 L 27.046875 -31.734375 C 27.015625 -31.222656 26.921875 -30.796875 26.765625 -30.453125 C 25.703125 -28.148438 24.140625 -25.894531 22.078125 -23.6875 C 20.015625 -21.488281 17.5625 -19.488281 14.71875 -17.6875 C 11.882812 -15.882812 8.769531 -14.359375 5.375 -13.109375 C 5.101562 -13.015625 4.90625 -13.03125 4.78125 -13.15625 Z M 36.0625 -15.65625 L 20.3125 -24.21875 L 31.921875 -21.859375 L 35.015625 -21.484375 C 35.648438 -21.097656 36.320312 -20.613281 37.03125 -20.03125 C 37.75 -19.457031 38.304688 -18.972656 38.703125 -18.578125 C 39.304688 -17.878906 39.59375 -17.300781 39.5625 -16.84375 C 39.53125 -16.382812 39.328125 -15.976562 38.953125 -15.625 C 38.578125 -15.28125 38.175781 -15.109375 37.75 -15.109375 C 37.5 -15.085938 37.222656 -15.132812 36.921875 -15.25 C 36.617188 -15.375 36.332031 -15.507812 36.0625 -15.65625 Z M 31.921875 -21.859375 L 31.734375 -21.53125 L 20.3125 -24.21875 L 22.453125 -26.734375 Z M 19.984375 -12.4375 C 19.742188 -12.769531 19.363281 -13.09375 18.84375 -13.40625 C 18.332031 -13.726562 17.816406 -13.976562 17.296875 -14.15625 L 17.71875 -15.578125 C 17.738281 -15.660156 17.785156 -15.722656 17.859375 -15.765625 C 17.941406 -15.816406 18.117188 -15.84375 18.390625 -15.84375 C 18.941406 -15.875 19.640625 -15.847656 20.484375 -15.765625 C 21.335938 -15.691406 22.171875 -15.601562 22.984375 -15.5 C 23.804688 -15.394531 24.414062 -15.28125 24.8125 -15.15625 C 25.300781 -15.007812 25.5 -14.691406 25.40625 -14.203125 L 25.171875 -11.796875 Z M 25 -4.421875 L 20.03125 -4.421875 L 19.984375 -12.4375 L 25.171875 -11.796875 Z M 36.703125 -6.640625 C 37.335938 -6.617188 38.023438 -6.5625 38.765625 -6.46875 C 39.515625 -6.375 40.226562 -6.265625 40.90625 -6.140625 C 41.59375 -6.023438 42.117188 -5.890625 42.484375 -5.734375 C 42.992188 -5.554688 43.25 -5.207031 43.25 -4.6875 C 43.25 -4.113281 43.097656 -3.597656 42.796875 -3.140625 C 42.492188 -2.679688 42.191406 -2.378906 41.890625 -2.234375 C 41.523438 -2.296875 40.96875 -2.335938 40.21875 -2.359375 C 39.476562 -2.390625 38.726562 -2.410156 37.96875 -2.421875 C 37.207031 -2.441406 36.585938 -2.453125 36.109375 -2.453125 C 35.585938 -2.453125 34.679688 -2.441406 33.390625 -2.421875 C 32.109375 -2.410156 30.613281 -2.398438 28.90625 -2.390625 C 27.207031 -2.378906 25.441406 -2.363281 23.609375 -2.34375 C 21.773438 -2.332031 20.015625 -2.3125 18.328125 -2.28125 C 16.640625 -2.25 15.179688 -2.21875 13.953125 -2.1875 C 12.722656 -2.15625 11.878906 -2.125 11.421875 -2.09375 C 11.035156 -2.0625 10.503906 -1.992188 9.828125 -1.890625 C 9.160156 -1.785156 8.5 -1.671875 7.84375 -1.546875 C 7.195312 -1.421875 6.660156 -1.300781 6.234375 -1.1875 C 5.328125 -1.519531 4.414062 -1.988281 3.5 -2.59375 C 2.59375 -3.195312 1.804688 -3.804688 1.140625 -4.421875 C 0.953125 -4.597656 0.90625 -4.804688 1 -5.046875 L 1.40625 -5.828125 C 2.320312 -5.671875 3.3125 -5.546875 4.375 -5.453125 C 5.4375 -5.367188 6.390625 -5.3125 7.234375 -5.28125 C 7.691406 -5.28125 8.457031 -5.28125 9.53125 -5.28125 C 10.613281 -5.28125 11.910156 -5.285156 13.421875 -5.296875 C 14.941406 -5.316406 16.566406 -5.34375 18.296875 -5.375 C 20.035156 -5.40625 21.769531 -5.4375 23.5 -5.46875 C 25.226562 -5.5 26.859375 -5.523438 28.390625 -5.546875 C 29.921875 -5.578125 31.25 -5.609375 32.375 -5.640625 C 33.5 -5.671875 34.285156 -5.703125 34.734375 -5.734375 Z M 36.703125 -6.640625 "/></g></g></g></g></g><g transform="matrix(1, 0, 0, 1, 152, 400)"><g clip-path="url(#0ab909e9a0)"><g fill="#ffffff" fill-opacity="1"><g transform="translate(1.428325, 24.13686)"><g><path d="M 1.03125 0 L 1.046875 -0.6875 L 4.15625 -0.953125 L 4.453125 -0.953125 L 4.4375 0 Z M 3.109375 0 C 3.140625 -1.207031 3.15625 -2.40625 3.15625 -3.59375 C 3.15625 -4.78125 3.15625 -5.90625 3.15625 -6.96875 L 3.15625 -8.375 C 3.15625 -9.601562 3.15625 -10.828125 3.15625 -12.046875 C 3.15625 -13.273438 3.140625 -14.484375 3.109375 -15.671875 L 5.765625 -15.671875 C 5.742188 -14.484375 5.726562 -13.273438 5.71875 -12.046875 C 5.71875 -10.828125 5.71875 -9.582031 5.71875 -8.3125 L 5.71875 -7.03125 C 5.71875 -5.957031 5.71875 -4.820312 5.71875 -3.625 C 5.726562 -2.425781 5.742188 -1.21875 5.765625 0 Z M 4.4375 0 L 4.453125 -0.765625 L 12.046875 -0.765625 L 10.8125 -0.15625 L 11.765625 -4.390625 L 12.78125 -4.390625 L 12.71875 0 Z M 1.03125 -15.015625 L 1.03125 -15.671875 L 7.953125 -15.671875 L 7.953125 -15.015625 L 4.78125 -14.734375 L 4.15625 -14.734375 Z M 1.03125 -15.015625 "/></g></g></g><g fill="#ffffff" fill-opacity="1"><g transform="translate(17.63595, 24.13686)"><g><path d="M 4.015625 0.34375 C 3.140625 0.34375 2.414062 0.09375 1.84375 -0.40625 C 1.28125 -0.90625 1 -1.601562 1 -2.5 C 1 -3.082031 1.125 -3.597656 1.375 -4.046875 C 1.632812 -4.492188 2.066406 -4.894531 2.671875 -5.25 C 3.273438 -5.601562 4.082031 -5.921875 5.09375 -6.203125 C 5.675781 -6.378906 6.304688 -6.554688 6.984375 -6.734375 C 7.671875 -6.910156 8.300781 -7.0625 8.875 -7.1875 L 8.875 -6.65625 C 8.300781 -6.507812 7.726562 -6.351562 7.15625 -6.1875 C 6.582031 -6.03125 6.082031 -5.875 5.65625 -5.71875 C 4.832031 -5.40625 4.226562 -5.007812 3.84375 -4.53125 C 3.457031 -4.050781 3.265625 -3.488281 3.265625 -2.84375 C 3.265625 -2.1875 3.429688 -1.691406 3.765625 -1.359375 C 4.109375 -1.035156 4.550781 -0.875 5.09375 -0.875 C 5.363281 -0.875 5.640625 -0.929688 5.921875 -1.046875 C 6.210938 -1.160156 6.539062 -1.363281 6.90625 -1.65625 C 7.28125 -1.945312 7.71875 -2.351562 8.21875 -2.875 L 8.484375 -1.796875 L 7.84375 -1.796875 C 7.414062 -1.335938 7.015625 -0.945312 6.640625 -0.625 C 6.273438 -0.3125 5.882812 -0.0703125 5.46875 0.09375 C 5.050781 0.257812 4.566406 0.34375 4.015625 0.34375 Z M 9.859375 0.3125 C 9.171875 0.3125 8.648438 0.101562 8.296875 -0.3125 C 7.941406 -0.738281 7.726562 -1.316406 7.65625 -2.046875 L 7.65625 -7.9375 C 7.65625 -8.695312 7.578125 -9.289062 7.421875 -9.71875 C 7.265625 -10.144531 7.015625 -10.441406 6.671875 -10.609375 C 6.328125 -10.785156 5.878906 -10.875 5.328125 -10.875 C 4.941406 -10.875 4.550781 -10.820312 4.15625 -10.71875 C 3.757812 -10.625 3.3125 -10.460938 2.8125 -10.234375 L 3.96875 -10.796875 L 3.71875 -9.125 C 3.664062 -8.613281 3.519531 -8.25 3.28125 -8.03125 C 3.050781 -7.820312 2.78125 -7.71875 2.46875 -7.71875 C 1.84375 -7.71875 1.460938 -8.015625 1.328125 -8.609375 C 1.492188 -9.523438 1.984375 -10.25 2.796875 -10.78125 C 3.617188 -11.3125 4.710938 -11.578125 6.078125 -11.578125 C 7.429688 -11.578125 8.421875 -11.265625 9.046875 -10.640625 C 9.671875 -10.015625 9.984375 -9 9.984375 -7.59375 L 9.984375 -2.140625 C 9.984375 -1.566406 10.050781 -1.175781 10.1875 -0.96875 C 10.332031 -0.757812 10.535156 -0.65625 10.796875 -0.65625 C 10.960938 -0.65625 11.113281 -0.703125 11.25 -0.796875 C 11.394531 -0.890625 11.5625 -1.054688 11.75 -1.296875 L 12.09375 -0.984375 C 11.851562 -0.535156 11.550781 -0.207031 11.1875 0 C 10.820312 0.207031 10.378906 0.3125 9.859375 0.3125 Z M 9.859375 0.3125 "/></g></g></g><g fill="#ffffff" fill-opacity="1"><g transform="translate(32.13758, 24.13686)"><g><path d="M 4.84375 0.078125 L 0.859375 -11.234375 L 3.34375 -11.234375 L 6.3125 -1.875 L 5.953125 -1.875 L 6.0625 -2.171875 L 9.15625 -11.234375 L 10.328125 -11.234375 L 13.59375 -1.875 L 13.203125 -1.875 L 13.28125 -2.140625 L 16.03125 -11.234375 L 16.984375 -11.234375 L 13.140625 0.078125 L 12.09375 0.078125 L 8.78125 -9.59375 L 9.359375 -9.59375 L 9.21875 -9.21875 L 5.890625 0.078125 Z M -0.15625 -10.625 L -0.15625 -11.234375 L 5.4375 -11.234375 L 5.4375 -10.625 L 2.765625 -10.390625 L 2 -10.390625 Z M 7.25 -10.625 L 7.25 -11.234375 L 12.328125 -11.234375 L 12.328125 -10.625 L 10.125 -10.390625 L 9.484375 -10.390625 Z M 13.90625 -10.625 L 13.90625 -11.234375 L 18.21875 -11.234375 L 18.21875 -10.625 L 16.46875 -10.390625 L 16.140625 -10.390625 Z M 13.90625 -10.625 "/></g></g></g><g fill="#ffffff" fill-opacity="1"><g transform="translate(53.121923, 24.13686)"><g/></g></g><g fill="#ffffff" fill-opacity="1"><g transform="translate(61.183531, 24.13686)"><g><path d="M 8.296875 0.390625 C 7.328125 0.390625 6.410156 0.207031 5.546875 -0.15625 C 4.679688 -0.519531 3.910156 -1.050781 3.234375 -1.75 C 2.566406 -2.445312 2.039062 -3.304688 1.65625 -4.328125 C 1.28125 -5.347656 1.09375 -6.519531 1.09375 -7.84375 C 1.09375 -9.15625 1.28125 -10.316406 1.65625 -11.328125 C 2.039062 -12.347656 2.566406 -13.207031 3.234375 -13.90625 C 3.910156 -14.613281 4.679688 -15.148438 5.546875 -15.515625 C 6.410156 -15.878906 7.328125 -16.0625 8.296875 -16.0625 C 9.265625 -16.0625 10.175781 -15.882812 11.03125 -15.53125 C 11.894531 -15.175781 12.660156 -14.644531 13.328125 -13.9375 C 13.992188 -13.226562 14.519531 -12.363281 14.90625 -11.34375 C 15.289062 -10.332031 15.484375 -9.164062 15.484375 -7.84375 C 15.484375 -6.539062 15.289062 -5.375 14.90625 -4.34375 C 14.519531 -3.320312 13.992188 -2.457031 13.328125 -1.75 C 12.660156 -1.050781 11.894531 -0.519531 11.03125 -0.15625 C 10.175781 0.207031 9.265625 0.390625 8.296875 0.390625 Z M 8.296875 -0.390625 C 9.046875 -0.390625 9.703125 -0.578125 10.265625 -0.953125 C 10.828125 -1.335938 11.289062 -1.867188 11.65625 -2.546875 C 12.03125 -3.222656 12.3125 -4.015625 12.5 -4.921875 C 12.6875 -5.835938 12.78125 -6.8125 12.78125 -7.84375 C 12.78125 -8.882812 12.6875 -9.851562 12.5 -10.75 C 12.3125 -11.644531 12.03125 -12.429688 11.65625 -13.109375 C 11.289062 -13.796875 10.828125 -14.332031 10.265625 -14.71875 C 9.703125 -15.101562 9.046875 -15.296875 8.296875 -15.296875 C 7.546875 -15.296875 6.890625 -15.101562 6.328125 -14.71875 C 5.765625 -14.332031 5.289062 -13.796875 4.90625 -13.109375 C 4.53125 -12.429688 4.25 -11.644531 4.0625 -10.75 C 3.875 -9.851562 3.78125 -8.882812 3.78125 -7.84375 C 3.78125 -6.8125 3.875 -5.835938 4.0625 -4.921875 C 4.25 -4.015625 4.53125 -3.222656 4.90625 -2.546875 C 5.289062 -1.867188 5.765625 -1.335938 6.328125 -0.953125 C 6.890625 -0.578125 7.546875 -0.390625 8.296875 -0.390625 Z M 8.296875 -0.390625 "/></g></g></g><g fill="#ffffff" fill-opacity="1"><g transform="translate(80.333957, 24.13686)"><g><path d="M 0.75 0 L 0.75 -0.625 L 3.171875 -0.859375 L 4.578125 -0.859375 L 7.078125 -0.625 L 7.078125 0 Z M 2.46875 0 C 2.5 -0.820312 2.515625 -1.648438 2.515625 -2.484375 C 2.523438 -3.316406 2.53125 -4.140625 2.53125 -4.953125 L 2.53125 -10.421875 L 0.640625 -10.421875 L 0.640625 -11.09375 L 3.390625 -11.34375 L 2.53125 -10.90625 L 2.53125 -11.09375 C 2.632812 -12.4375 2.847656 -13.507812 3.171875 -14.3125 C 3.503906 -15.125 3.945312 -15.773438 4.5 -16.265625 C 5 -16.742188 5.523438 -17.082031 6.078125 -17.28125 C 6.628906 -17.476562 7.191406 -17.578125 7.765625 -17.578125 C 8.328125 -17.578125 8.832031 -17.472656 9.28125 -17.265625 C 9.726562 -17.054688 10.019531 -16.722656 10.15625 -16.265625 C 10.132812 -15.953125 10.015625 -15.691406 9.796875 -15.484375 C 9.585938 -15.285156 9.285156 -15.1875 8.890625 -15.1875 C 8.566406 -15.1875 8.265625 -15.273438 7.984375 -15.453125 C 7.710938 -15.640625 7.429688 -15.945312 7.140625 -16.375 L 6.59375 -17.109375 L 6.59375 -17.296875 L 7.53125 -17.296875 L 7.53125 -17.125 C 7.15625 -17.082031 6.804688 -16.953125 6.484375 -16.734375 C 6.171875 -16.523438 5.921875 -16.28125 5.734375 -16 C 5.492188 -15.613281 5.304688 -15.1875 5.171875 -14.71875 C 5.046875 -14.25 4.96875 -13.691406 4.9375 -13.046875 C 4.90625 -12.398438 4.910156 -11.628906 4.953125 -10.734375 L 4.953125 -4.953125 C 4.953125 -4.140625 4.957031 -3.316406 4.96875 -2.484375 C 4.976562 -1.648438 4.992188 -0.820312 5.015625 0 Z M 3.75 -10.421875 L 3.75 -11.234375 L 8.015625 -11.234375 L 8.015625 -10.421875 Z M 3.75 -10.421875 "/></g></g></g><g fill="#ffffff" fill-opacity="1"><g transform="translate(91.444987, 24.13686)"><g><path d="M 0.75 0 L 0.75 -0.625 L 3.171875 -0.859375 L 4.578125 -0.859375 L 7.078125 -0.625 L 7.078125 0 Z M 2.46875 0 C 2.5 -0.820312 2.515625 -1.648438 2.515625 -2.484375 C 2.523438 -3.316406 2.53125 -4.140625 2.53125 -4.953125 L 2.53125 -10.421875 L 0.640625 -10.421875 L 0.640625 -11.09375 L 3.390625 -11.34375 L 2.53125 -10.90625 L 2.53125 -11.09375 C 2.632812 -12.4375 2.847656 -13.507812 3.171875 -14.3125 C 3.503906 -15.125 3.945312 -15.773438 4.5 -16.265625 C 5 -16.742188 5.523438 -17.082031 6.078125 -17.28125 C 6.628906 -17.476562 7.191406 -17.578125 7.765625 -17.578125 C 8.328125 -17.578125 8.832031 -17.472656 9.28125 -17.265625 C 9.726562 -17.054688 10.019531 -16.722656 10.15625 -16.265625 C 10.132812 -15.953125 10.015625 -15.691406 9.796875 -15.484375 C 9.585938 -15.285156 9.285156 -15.1875 8.890625 -15.1875 C 8.566406 -15.1875 8.265625 -15.273438 7.984375 -15.453125 C 7.710938 -15.640625 7.429688 -15.945312 7.140625 -16.375 L 6.59375 -17.109375 L 6.59375 -17.296875 L 7.53125 -17.296875 L 7.53125 -17.125 C 7.15625 -17.082031 6.804688 -16.953125 6.484375 -16.734375 C 6.171875 -16.523438 5.921875 -16.28125 5.734375 -16 C 5.492188 -15.613281 5.304688 -15.1875 5.171875 -14.71875 C 5.046875 -14.25 4.96875 -13.691406 4.9375 -13.046875 C 4.90625 -12.398438 4.910156 -11.628906 4.953125 -10.734375 L 4.953125 -4.953125 C 4.953125 -4.140625 4.957031 -3.316406 4.96875 -2.484375 C 4.976562 -1.648438 4.992188 -0.820312 5.015625 0 Z M 3.75 -10.421875 L 3.75 -11.234375 L 8.015625 -11.234375 L 8.015625 -10.421875 Z M 3.75 -10.421875 "/></g></g></g><g fill="#ffffff" fill-opacity="1"><g transform="translate(103.131819, 24.13686)"><g><path d="M 0.875 0 L 0.875 -0.625 L 3.171875 -0.859375 L 4.21875 -0.859375 L 6.5 -0.625 L 6.5 0 Z M 2.5 0 C 2.507812 -0.351562 2.515625 -0.820312 2.515625 -1.40625 C 2.523438 -2 2.535156 -2.613281 2.546875 -3.25 C 2.554688 -3.894531 2.5625 -4.460938 2.5625 -4.953125 L 2.5625 -6.40625 C 2.5625 -7.113281 2.554688 -7.738281 2.546875 -8.28125 C 2.535156 -8.832031 2.519531 -9.363281 2.5 -9.875 L 0.703125 -10 L 0.703125 -10.53125 L 4.75 -11.53125 L 5.015625 -11.34375 L 4.953125 -8.21875 L 4.953125 -4.953125 C 4.953125 -4.460938 4.953125 -3.894531 4.953125 -3.25 C 4.960938 -2.613281 4.972656 -2 4.984375 -1.40625 C 5.003906 -0.820312 5.019531 -0.351562 5.03125 0 Z M 3.625 -13.96875 C 3.226562 -13.96875 2.882812 -14.097656 2.59375 -14.359375 C 2.300781 -14.628906 2.15625 -14.96875 2.15625 -15.375 C 2.15625 -15.789062 2.300781 -16.128906 2.59375 -16.390625 C 2.882812 -16.648438 3.226562 -16.78125 3.625 -16.78125 C 4.019531 -16.78125 4.363281 -16.648438 4.65625 -16.390625 C 4.945312 -16.128906 5.09375 -15.789062 5.09375 -15.375 C 5.09375 -14.96875 4.945312 -14.628906 4.65625 -14.359375 C 4.363281 -14.097656 4.019531 -13.96875 3.625 -13.96875 Z M 3.625 -13.96875 "/></g></g></g><g fill="#ffffff" fill-opacity="1"><g transform="translate(113.091316, 24.13686)"><g><path d="M 6.46875 0.34375 C 5.414062 0.34375 4.46875 0.113281 3.625 -0.34375 C 2.789062 -0.800781 2.128906 -1.460938 1.640625 -2.328125 C 1.160156 -3.191406 0.921875 -4.234375 0.921875 -5.453125 C 0.921875 -6.773438 1.191406 -7.890625 1.734375 -8.796875 C 2.285156 -9.710938 3.007812 -10.40625 3.90625 -10.875 C 4.8125 -11.34375 5.789062 -11.578125 6.84375 -11.578125 C 7.539062 -11.578125 8.175781 -11.445312 8.75 -11.1875 C 9.332031 -10.9375 9.8125 -10.582031 10.1875 -10.125 C 10.570312 -9.675781 10.832031 -9.148438 10.96875 -8.546875 C 10.8125 -7.953125 10.441406 -7.65625 9.859375 -7.65625 C 9.515625 -7.65625 9.21875 -7.765625 8.96875 -7.984375 C 8.726562 -8.203125 8.585938 -8.578125 8.546875 -9.109375 L 8.109375 -11.046875 L 9.390625 -10.15625 C 8.972656 -10.40625 8.582031 -10.585938 8.21875 -10.703125 C 7.851562 -10.816406 7.472656 -10.875 7.078125 -10.875 C 6.398438 -10.875 5.78125 -10.664062 5.21875 -10.25 C 4.664062 -9.84375 4.234375 -9.257812 3.921875 -8.5 C 3.609375 -7.75 3.453125 -6.84375 3.453125 -5.78125 C 3.453125 -4.226562 3.816406 -3.023438 4.546875 -2.171875 C 5.285156 -1.316406 6.242188 -0.890625 7.421875 -0.890625 C 8.054688 -0.890625 8.640625 -1.019531 9.171875 -1.28125 C 9.710938 -1.550781 10.195312 -1.941406 10.625 -2.453125 L 10.984375 -2.171875 C 10.484375 -1.347656 9.878906 -0.722656 9.171875 -0.296875 C 8.460938 0.128906 7.5625 0.34375 6.46875 0.34375 Z M 6.46875 0.34375 "/></g></g></g><g fill="#ffffff" fill-opacity="1"><g transform="translate(127.486344, 24.13686)"><g><path d="M 6.640625 0.34375 C 5.523438 0.34375 4.535156 0.113281 3.671875 -0.34375 C 2.816406 -0.800781 2.144531 -1.472656 1.65625 -2.359375 C 1.164062 -3.242188 0.921875 -4.332031 0.921875 -5.625 C 0.921875 -6.863281 1.175781 -7.925781 1.6875 -8.8125 C 2.207031 -9.707031 2.890625 -10.390625 3.734375 -10.859375 C 4.585938 -11.335938 5.5 -11.578125 6.46875 -11.578125 C 7.457031 -11.578125 8.300781 -11.375 9 -10.96875 C 9.695312 -10.5625 10.222656 -10.015625 10.578125 -9.328125 C 10.929688 -8.640625 11.109375 -7.863281 11.109375 -7 C 11.109375 -6.488281 11.066406 -6.050781 10.984375 -5.6875 L 1.984375 -5.6875 L 1.984375 -6.40625 L 7.765625 -6.40625 C 8.171875 -6.40625 8.445312 -6.515625 8.59375 -6.734375 C 8.75 -6.960938 8.828125 -7.34375 8.828125 -7.875 C 8.828125 -8.789062 8.609375 -9.519531 8.171875 -10.0625 C 7.742188 -10.601562 7.144531 -10.875 6.375 -10.875 C 5.832031 -10.875 5.34375 -10.6875 4.90625 -10.3125 C 4.46875 -9.945312 4.113281 -9.394531 3.84375 -8.65625 C 3.582031 -7.914062 3.453125 -7 3.453125 -5.90625 C 3.453125 -4.738281 3.617188 -3.785156 3.953125 -3.046875 C 4.285156 -2.304688 4.75 -1.757812 5.34375 -1.40625 C 5.945312 -1.0625 6.625 -0.890625 7.375 -0.890625 C 8.132812 -0.890625 8.78125 -1.03125 9.3125 -1.3125 C 9.851562 -1.59375 10.328125 -1.988281 10.734375 -2.5 L 11.09375 -2.203125 C 10.632812 -1.398438 10.023438 -0.773438 9.265625 -0.328125 C 8.515625 0.117188 7.640625 0.34375 6.640625 0.34375 Z M 6.640625 0.34375 "/></g></g></g><g fill="#ffffff" fill-opacity="1"><g transform="translate(142.137267, 24.13686)"><g/></g></g><g fill="#ffffff" fill-opacity="1"><g transform="translate(150.198875, 24.13686)"><g><path d="M 5.796875 0.390625 C 4.921875 0.390625 4.0625 0.269531 3.21875 0.03125 C 2.382812 -0.195312 1.679688 -0.5 1.109375 -0.875 L 1.234375 -4.25 L 2.265625 -4.25 L 3.171875 -0.421875 L 2 -0.953125 L 1.8125 -1.703125 C 2.507812 -1.203125 3.128906 -0.867188 3.671875 -0.703125 C 4.210938 -0.535156 4.851562 -0.453125 5.59375 -0.453125 C 6.695312 -0.453125 7.578125 -0.703125 8.234375 -1.203125 C 8.890625 -1.710938 9.21875 -2.441406 9.21875 -3.390625 C 9.21875 -3.890625 9.128906 -4.320312 8.953125 -4.6875 C 8.773438 -5.0625 8.484375 -5.394531 8.078125 -5.6875 C 7.679688 -5.988281 7.128906 -6.28125 6.421875 -6.5625 L 5.484375 -6.96875 C 4.160156 -7.550781 3.148438 -8.21875 2.453125 -8.96875 C 1.753906 -9.71875 1.40625 -10.675781 1.40625 -11.84375 C 1.40625 -12.757812 1.632812 -13.53125 2.09375 -14.15625 C 2.5625 -14.78125 3.195312 -15.253906 4 -15.578125 C 4.800781 -15.898438 5.703125 -16.0625 6.703125 -16.0625 C 7.523438 -16.0625 8.265625 -15.957031 8.921875 -15.75 C 9.585938 -15.539062 10.195312 -15.253906 10.75 -14.890625 L 10.625 -11.671875 L 9.578125 -11.671875 L 8.703125 -15.3125 L 9.9375 -14.78125 L 10.0625 -13.984375 C 9.476562 -14.453125 8.960938 -14.78125 8.515625 -14.96875 C 8.066406 -15.15625 7.546875 -15.25 6.953125 -15.25 C 5.984375 -15.25 5.1875 -15.015625 4.5625 -14.546875 C 3.945312 -14.078125 3.640625 -13.398438 3.640625 -12.515625 C 3.640625 -11.734375 3.863281 -11.109375 4.3125 -10.640625 C 4.757812 -10.179688 5.382812 -9.773438 6.1875 -9.421875 L 7.203125 -8.984375 C 8.285156 -8.523438 9.140625 -8.0625 9.765625 -7.59375 C 10.390625 -7.132812 10.832031 -6.628906 11.09375 -6.078125 C 11.363281 -5.535156 11.5 -4.878906 11.5 -4.109375 C 11.5 -3.210938 11.269531 -2.425781 10.8125 -1.75 C 10.351562 -1.082031 9.695312 -0.554688 8.84375 -0.171875 C 8 0.203125 6.984375 0.390625 5.796875 0.390625 Z M 5.796875 0.390625 "/></g></g></g><g fill="#ffffff" fill-opacity="1"><g transform="translate(165.297607, 24.13686)"><g><path d="M 1.03125 0 L 1.03125 -0.6875 L 4.09375 -0.953125 L 4.625 -0.953125 L 7.765625 -0.6875 L 7.765625 0 Z M 3.09375 0 C 3.125 -1.207031 3.140625 -2.414062 3.140625 -3.625 C 3.140625 -4.84375 3.140625 -6.066406 3.140625 -7.296875 L 3.140625 -8.375 C 3.140625 -9.601562 3.140625 -10.820312 3.140625 -12.03125 C 3.140625 -13.25 3.125 -14.460938 3.09375 -15.671875 L 5.765625 -15.671875 C 5.734375 -14.484375 5.710938 -13.273438 5.703125 -12.046875 C 5.691406 -10.828125 5.6875 -9.601562 5.6875 -8.375 L 5.6875 -7.8125 C 5.6875 -6.34375 5.691406 -4.976562 5.703125 -3.71875 C 5.710938 -2.457031 5.734375 -1.21875 5.765625 0 Z M 4.421875 -7.703125 L 4.421875 -8.453125 L 13.953125 -8.453125 L 13.953125 -7.703125 Z M 10.578125 0 L 10.578125 -0.6875 L 13.6875 -0.953125 L 14.21875 -0.953125 L 17.296875 -0.6875 L 17.296875 0 Z M 12.578125 0 C 12.609375 -1.207031 12.625 -2.441406 12.625 -3.703125 C 12.632812 -4.960938 12.640625 -6.332031 12.640625 -7.8125 L 12.640625 -8.375 C 12.640625 -9.601562 12.632812 -10.820312 12.625 -12.03125 C 12.625 -13.25 12.609375 -14.460938 12.578125 -15.671875 L 15.25 -15.671875 C 15.238281 -14.484375 15.226562 -13.273438 15.21875 -12.046875 C 15.207031 -10.828125 15.203125 -9.601562 15.203125 -8.375 L 15.203125 -7.296875 C 15.203125 -6.085938 15.207031 -4.875 15.21875 -3.65625 C 15.226562 -2.4375 15.238281 -1.21875 15.25 0 Z M 1.03125 -15.015625 L 1.03125 -15.671875 L 7.765625 -15.671875 L 7.765625 -15.015625 L 4.625 -14.734375 L 4.09375 -14.734375 Z M 10.578125 -15.015625 L 10.578125 -15.671875 L 17.296875 -15.671875 L 17.296875 -15.015625 L 14.21875 -14.734375 L 13.6875 -14.734375 Z M 10.578125 -15.015625 "/></g></g></g><g fill="#ffffff" fill-opacity="1"><g transform="translate(186.303271, 24.13686)"><g><path d="M 1.03125 0 L 1.03125 -0.6875 L 4.15625 -0.953125 L 4.6875 -0.953125 L 7.84375 -0.6875 L 7.84375 0 Z M 3.109375 0 C 3.140625 -1.207031 3.15625 -2.414062 3.15625 -3.625 C 3.164062 -4.84375 3.171875 -6.066406 3.171875 -7.296875 L 3.171875 -8.375 C 3.171875 -9.601562 3.164062 -10.820312 3.15625 -12.03125 C 3.15625 -13.25 3.140625 -14.460938 3.109375 -15.671875 L 5.78125 -15.671875 C 5.75 -14.484375 5.726562 -13.273438 5.71875 -12.046875 C 5.71875 -10.828125 5.71875 -9.601562 5.71875 -8.375 L 5.71875 -7.3125 C 5.71875 -6.09375 5.71875 -4.875 5.71875 -3.65625 C 5.726562 -2.4375 5.75 -1.21875 5.78125 0 Z M 1.03125 -15.015625 L 1.03125 -15.671875 L 7.84375 -15.671875 L 7.84375 -15.015625 L 4.6875 -14.734375 L 4.15625 -14.734375 Z M 1.03125 -15.015625 "/></g></g></g><g fill="#ffffff" fill-opacity="1"><g transform="translate(197.862121, 24.13686)"><g><path d="M 0.875 0 L 0.875 -0.6875 L 3.109375 -0.953125 L 3.640625 -0.953125 L 6.5 -0.6875 L 6.5 0 Z M 2.921875 0 L 2.921875 -15.140625 L 3.71875 -15.140625 L 3.875 -6.078125 L 3.875 0 Z M 10.796875 -15.015625 L 10.796875 -15.671875 L 16.421875 -15.671875 L 16.421875 -15.015625 L 14.1875 -14.734375 L 13.671875 -14.734375 Z M 13.046875 0.109375 L 3.5 -13.84375 L 3.4375 -13.90625 L 2.8125 -14.859375 L 0.890625 -15.015625 L 0.890625 -15.671875 L 5.21875 -15.671875 L 13.921875 -2.90625 L 13.546875 -2.75 L 13.484375 -9.109375 L 13.484375 -15.671875 L 14.328125 -15.671875 L 14.328125 0.109375 Z M 13.046875 0.109375 "/></g></g></g><g fill="#ffffff" fill-opacity="1"><g transform="translate(217.588308, 24.13686)"><g><path d="M 1.03125 0 L 1.046875 -0.6875 L 4.15625 -0.953125 L 4.453125 -0.953125 L 4.4375 0 Z M 3.109375 0 C 3.140625 -1.207031 3.15625 -2.40625 3.15625 -3.59375 C 3.15625 -4.78125 3.15625 -5.90625 3.15625 -6.96875 L 3.15625 -8.375 C 3.15625 -9.601562 3.15625 -10.828125 3.15625 -12.046875 C 3.15625 -13.273438 3.140625 -14.484375 3.109375 -15.671875 L 5.765625 -15.671875 C 5.742188 -14.484375 5.726562 -13.273438 5.71875 -12.046875 C 5.71875 -10.828125 5.71875 -9.582031 5.71875 -8.3125 L 5.71875 -7.03125 C 5.71875 -5.957031 5.71875 -4.820312 5.71875 -3.625 C 5.726562 -2.425781 5.742188 -1.21875 5.765625 0 Z M 4.4375 0 L 4.453125 -0.765625 L 12.046875 -0.765625 L 10.8125 -0.15625 L 11.765625 -4.390625 L 12.78125 -4.390625 L 12.71875 0 Z M 1.03125 -15.015625 L 1.03125 -15.671875 L 7.953125 -15.671875 L 7.953125 -15.015625 L 4.78125 -14.734375 L 4.15625 -14.734375 Z M 1.03125 -15.015625 "/></g></g></g><g fill="#ffffff" fill-opacity="1"><g transform="translate(233.604, 24.13686)"><g><path d="M 8.296875 0.390625 C 7.328125 0.390625 6.410156 0.207031 5.546875 -0.15625 C 4.679688 -0.519531 3.910156 -1.050781 3.234375 -1.75 C 2.566406 -2.445312 2.039062 -3.304688 1.65625 -4.328125 C 1.28125 -5.347656 1.09375 -6.519531 1.09375 -7.84375 C 1.09375 -9.15625 1.28125 -10.316406 1.65625 -11.328125 C 2.039062 -12.347656 2.566406 -13.207031 3.234375 -13.90625 C 3.910156 -14.613281 4.679688 -15.148438 5.546875 -15.515625 C 6.410156 -15.878906 7.328125 -16.0625 8.296875 -16.0625 C 9.265625 -16.0625 10.175781 -15.882812 11.03125 -15.53125 C 11.894531 -15.175781 12.660156 -14.644531 13.328125 -13.9375 C 13.992188 -13.226562 14.519531 -12.363281 14.90625 -11.34375 C 15.289062 -10.332031 15.484375 -9.164062 15.484375 -7.84375 C 15.484375 -6.539062 15.289062 -5.375 14.90625 -4.34375 C 14.519531 -3.320312 13.992188 -2.457031 13.328125 -1.75 C 12.660156 -1.050781 11.894531 -0.519531 11.03125 -0.15625 C 10.175781 0.207031 9.265625 0.390625 8.296875 0.390625 Z M 8.296875 -0.390625 C 9.046875 -0.390625 9.703125 -0.578125 10.265625 -0.953125 C 10.828125 -1.335938 11.289062 -1.867188 11.65625 -2.546875 C 12.03125 -3.222656 12.3125 -4.015625 12.5 -4.921875 C 12.6875 -5.835938 12.78125 -6.8125 12.78125 -7.84375 C 12.78125 -8.882812 12.6875 -9.851562 12.5 -10.75 C 12.3125 -11.644531 12.03125 -12.429688 11.65625 -13.109375 C 11.289062 -13.796875 10.828125 -14.332031 10.265625 -14.71875 C 9.703125 -15.101562 9.046875 -15.296875 8.296875 -15.296875 C 7.546875 -15.296875 6.890625 -15.101562 6.328125 -14.71875 C 5.765625 -14.332031 5.289062 -13.796875 4.90625 -13.109375 C 4.53125 -12.429688 4.25 -11.644531 4.0625 -10.75 C 3.875 -9.851562 3.78125 -8.882812 3.78125 -7.84375 C 3.78125 -6.8125 3.875 -5.835938 4.0625 -4.921875 C 4.25 -4.015625 4.53125 -3.222656 4.90625 -2.546875 C 5.289062 -1.867188 5.765625 -1.335938 6.328125 -0.953125 C 6.890625 -0.578125 7.546875 -0.390625 8.296875 -0.390625 Z M 8.296875 -0.390625 "/></g></g></g><g fill="#ffffff" fill-opacity="1"><g transform="translate(252.49852, 24.13686)"><g><path d="M 1.03125 0 L 1.03125 -0.6875 L 4.15625 -0.953125 L 4.4375 -0.953125 L 4.4375 0 Z M 3.109375 0 C 3.140625 -1.207031 3.15625 -2.414062 3.15625 -3.625 C 3.15625 -4.84375 3.15625 -6.066406 3.15625 -7.296875 L 3.15625 -8.375 C 3.15625 -9.601562 3.15625 -10.820312 3.15625 -12.03125 C 3.15625 -13.25 3.140625 -14.460938 3.109375 -15.671875 L 5.765625 -15.671875 C 5.742188 -14.484375 5.726562 -13.269531 5.71875 -12.03125 C 5.71875 -10.789062 5.71875 -9.507812 5.71875 -8.1875 L 5.71875 -7.65625 C 5.71875 -6.257812 5.71875 -4.9375 5.71875 -3.6875 C 5.726562 -2.445312 5.742188 -1.21875 5.765625 0 Z M 4.4375 0 L 4.4375 -0.765625 L 12.515625 -0.765625 L 11.234375 -0.125 L 12.15625 -4.09375 L 13.15625 -4.09375 L 13.09375 0 Z M 4.4375 -7.609375 L 4.4375 -8.34375 L 9.640625 -8.34375 L 9.640625 -7.609375 Z M 9.453125 -5.4375 L 9.125 -7.8125 L 9.125 -8.25 L 9.453125 -10.578125 L 10.296875 -10.578125 L 10.296875 -5.4375 Z M 1.03125 -15.015625 L 1.03125 -15.671875 L 4.4375 -15.671875 L 4.4375 -14.734375 L 4.15625 -14.734375 Z M 11.734375 -11.6875 L 10.859375 -15.59375 L 12.109375 -14.90625 L 4.4375 -14.90625 L 4.4375 -15.671875 L 12.6875 -15.671875 L 12.78125 -11.6875 Z M 11.734375 -11.6875 "/></g></g></g></g></g><g transform="matrix(1, 0, 0, 1, 414, 305)"><g clip-path="url(#4585011584)"><g fill="#ffffff" fill-opacity="1"><g transform="translate(0.516477, 110.710184)"><g><path d="M 71.375 -13.765625 C 71.238281 -14.734375 71.140625 -15.9375 71.078125 -17.375 C 71.015625 -18.820312 70.96875 -20.332031 70.9375 -21.90625 C 70.90625 -23.476562 70.875 -25.019531 70.84375 -26.53125 C 70.8125 -28.039062 70.796875 -29.34375 70.796875 -30.4375 L 70.796875 -74.453125 C 69.953125 -75.410156 68.804688 -76.320312 67.359375 -77.1875 C 65.921875 -78.0625 64.367188 -78.785156 62.703125 -79.359375 L 63.46875 -81.671875 C 63.53125 -81.992188 63.882812 -82.15625 64.53125 -82.15625 C 65.6875 -82.15625 67.050781 -82.007812 68.625 -81.71875 C 70.195312 -81.425781 71.71875 -81.101562 73.1875 -80.75 C 74.664062 -80.40625 75.859375 -80.039062 76.765625 -79.65625 C 77.535156 -79.394531 77.921875 -78.75 77.921875 -77.71875 L 77.625 -72.71875 L 77.625 -32.84375 C 77.625 -30.59375 77.539062 -28.296875 77.375 -25.953125 C 77.21875 -23.609375 76.960938 -21.394531 76.609375 -19.3125 C 76.265625 -17.226562 75.863281 -15.378906 75.40625 -13.765625 Z M 82.25 6.546875 L 40.84375 6.734375 L 41.796875 2.59375 C 43.335938 2.59375 45.457031 2.59375 48.15625 2.59375 C 50.851562 2.59375 53.691406 2.59375 56.671875 2.59375 C 59.660156 2.59375 62.453125 2.5625 65.046875 2.5 C 67.648438 2.4375 69.660156 2.375 71.078125 2.3125 L 74.15625 0.578125 C 75.570312 0.578125 77.207031 0.640625 79.0625 0.765625 C 80.925781 0.898438 82.3125 1.09375 83.21875 1.34375 C 84.050781 1.476562 84.46875 1.929688 84.46875 2.703125 C 84.46875 3.535156 84.351562 4.253906 84.125 4.859375 C 83.90625 5.472656 83.664062 5.875 83.40625 6.0625 C 83.144531 6.382812 82.757812 6.546875 82.25 6.546875 Z M 33.703125 -65.875 C 33.253906 -66.769531 32.515625 -67.71875 31.484375 -68.71875 C 30.460938 -69.71875 29.34375 -70.535156 28.125 -71.171875 L 29.28125 -73.203125 C 29.46875 -73.453125 29.820312 -73.546875 30.34375 -73.484375 C 31.5 -73.359375 32.765625 -73.070312 34.140625 -72.625 C 35.523438 -72.175781 36.828125 -71.675781 38.046875 -71.125 C 39.265625 -70.582031 40.160156 -70.117188 40.734375 -69.734375 C 41.503906 -69.285156 41.890625 -68.640625 41.890625 -67.796875 Z M 5.390625 -25.421875 C 5.203125 -25.742188 5.269531 -26.066406 5.59375 -26.390625 C 10.269531 -30.242188 14.488281 -34.414062 18.25 -38.90625 C 22.007812 -43.40625 25.21875 -47.960938 27.875 -52.578125 C 30.539062 -57.203125 32.484375 -61.632812 33.703125 -65.875 L 41.890625 -67.796875 C 41.890625 -67.410156 41.875 -67.039062 41.84375 -66.6875 C 41.8125 -66.34375 41.765625 -66.039062 41.703125 -65.78125 C 40.285156 -60.90625 38.003906 -55.992188 34.859375 -51.046875 C 31.710938 -46.097656 27.828125 -41.375 23.203125 -36.875 C 18.585938 -32.382812 13.359375 -28.25 7.515625 -24.46875 C 7.066406 -24.207031 6.742188 -24.207031 6.546875 -24.46875 Z M 53.75 -30.34375 L 32.171875 -50.953125 L 49.703125 -41.3125 L 53.84375 -39.78125 C 54.675781 -38.8125 55.554688 -37.648438 56.484375 -36.296875 C 57.421875 -34.953125 58.113281 -33.832031 58.5625 -32.9375 C 59.195312 -31.71875 59.390625 -30.816406 59.140625 -30.234375 C 58.941406 -29.722656 58.503906 -29.289062 57.828125 -28.9375 C 57.160156 -28.582031 56.535156 -28.503906 55.953125 -28.703125 C 55.628906 -28.765625 55.273438 -28.957031 54.890625 -29.28125 C 54.503906 -29.601562 54.125 -29.957031 53.75 -30.34375 Z M 49.703125 -41.3125 L 49.21875 -40.734375 L 32.171875 -50.953125 L 34.671875 -54.703125 Z M 39.390625 -8.765625 L 32.359375 -8.765625 L 32.359375 -15.03125 C 31.585938 -15.664062 30.59375 -16.222656 29.375 -16.703125 C 28.15625 -17.191406 26.90625 -17.597656 25.625 -17.921875 L 26.09375 -20.03125 C 26.164062 -20.414062 26.488281 -20.609375 27.0625 -20.609375 C 28.15625 -20.609375 29.40625 -20.5625 30.8125 -20.46875 C 32.226562 -20.375 33.609375 -20.273438 34.953125 -20.171875 C 36.304688 -20.078125 37.367188 -19.9375 38.140625 -19.75 C 39.097656 -19.488281 39.578125 -18.84375 39.578125 -17.8125 L 39.390625 -13.578125 Z M 40.9375 6.734375 C 37.789062 6.734375 35.570312 6.15625 34.28125 5 C 33 3.851562 32.359375 1.929688 32.359375 -0.765625 L 32.359375 -9.4375 L 39.390625 -9.4375 L 39.390625 0.09375 C 39.390625 1.757812 40.191406 2.59375 41.796875 2.59375 Z M 40.9375 6.734375 "/></g></g></g><g fill="#ffffff" fill-opacity="1"><g transform="translate(80.735959, 110.710184)"><g><path d="M 21.1875 -11.265625 C 20.226562 -11.203125 18.941406 -10.992188 17.328125 -10.640625 C 15.722656 -10.285156 14.503906 -9.945312 13.671875 -9.625 C 12.003906 -10.269531 10.300781 -11.101562 8.5625 -12.125 C 6.832031 -13.15625 5.328125 -14.1875 4.046875 -15.21875 C 3.660156 -15.476562 3.5625 -15.832031 3.75 -16.28125 L 4.234375 -17.4375 C 5.972656 -17.113281 7.785156 -16.882812 9.671875 -16.75 C 11.566406 -16.625 13.351562 -16.5625 15.03125 -16.5625 Z M 73.484375 -19.265625 C 73.484375 -18.816406 73.226562 -18.523438 72.71875 -18.390625 C 70.34375 -17.816406 67.46875 -17.222656 64.09375 -16.609375 C 60.726562 -16.003906 57.132812 -15.410156 53.3125 -14.828125 C 49.488281 -14.253906 45.632812 -13.722656 41.75 -13.234375 C 37.863281 -12.753906 34.140625 -12.335938 30.578125 -11.984375 C 27.015625 -11.640625 23.882812 -11.398438 21.1875 -11.265625 L 15.03125 -16.5625 C 17.914062 -16.625 21.285156 -16.769531 25.140625 -17 C 28.992188 -17.226562 33.050781 -17.5 37.3125 -17.8125 C 41.582031 -18.132812 45.851562 -18.519531 50.125 -18.96875 C 54.394531 -19.414062 58.425781 -19.878906 62.21875 -20.359375 C 66.007812 -20.847656 69.316406 -21.378906 72.140625 -21.953125 C 72.390625 -22.023438 72.609375 -22.007812 72.796875 -21.90625 C 72.992188 -21.8125 73.128906 -21.671875 73.203125 -21.484375 Z M 40.265625 -15.5 L 33.703125 -15.5 L 33.703125 -33.703125 L 40.265625 -33.703125 Z M 72.234375 10.40625 C 72.171875 9.375 72.109375 8.085938 72.046875 6.546875 C 71.984375 5.003906 71.914062 3.363281 71.84375 1.625 C 71.78125 -0.101562 71.734375 -1.769531 71.703125 -3.375 C 71.671875 -4.976562 71.65625 -6.289062 71.65625 -7.3125 L 71.65625 -74.453125 C 70.820312 -75.410156 69.679688 -76.320312 68.234375 -77.1875 C 66.796875 -78.0625 65.207031 -78.785156 63.46875 -79.359375 L 64.234375 -81.671875 C 64.304688 -81.796875 64.40625 -81.90625 64.53125 -82 C 64.65625 -82.101562 64.910156 -82.15625 65.296875 -82.15625 C 66.453125 -82.15625 67.816406 -82.007812 69.390625 -81.71875 C 70.960938 -81.425781 72.503906 -81.101562 74.015625 -80.75 C 75.523438 -80.40625 76.726562 -80.039062 77.625 -79.65625 C 78.457031 -79.394531 78.84375 -78.75 78.78125 -77.71875 L 78.5 -72.625 L 78.5 -9.734375 C 78.5 -8.316406 78.445312 -6.738281 78.34375 -5 C 78.25 -3.269531 78.101562 -1.476562 77.90625 0.375 C 77.71875 2.238281 77.476562 4.019531 77.1875 5.71875 C 76.90625 7.425781 76.601562 8.988281 76.28125 10.40625 Z M 49.3125 -65.6875 C 48.414062 -65.6875 47.113281 -65.671875 45.40625 -65.640625 C 43.707031 -65.609375 41.828125 -65.554688 39.765625 -65.484375 C 37.710938 -65.421875 35.660156 -65.375 33.609375 -65.34375 C 31.554688 -65.3125 29.757812 -65.265625 28.21875 -65.203125 C 26.675781 -65.140625 25.582031 -65.078125 24.9375 -65.015625 C 24.101562 -64.953125 22.992188 -64.789062 21.609375 -64.53125 C 20.234375 -64.269531 19.003906 -63.945312 17.921875 -63.5625 C 16.566406 -64.082031 15.28125 -64.691406 14.0625 -65.390625 C 12.84375 -66.097656 11.75 -66.835938 10.78125 -67.609375 C 10.394531 -67.867188 10.269531 -68.191406 10.40625 -68.578125 L 11.078125 -69.734375 C 12.234375 -69.472656 13.582031 -69.273438 15.125 -69.140625 C 16.664062 -69.015625 17.976562 -68.953125 19.0625 -68.953125 C 19.90625 -68.953125 21.320312 -68.953125 23.3125 -68.953125 C 25.300781 -68.953125 27.5625 -68.984375 30.09375 -69.046875 C 32.632812 -69.117188 35.1875 -69.1875 37.75 -69.25 C 40.320312 -69.3125 42.632812 -69.390625 44.6875 -69.484375 C 46.738281 -69.585938 48.28125 -69.671875 49.3125 -69.734375 Z M 55.578125 -49.703125 L 21.28125 -48.921875 L 21.28125 -52.78125 C 22.113281 -52.78125 23.429688 -52.78125 25.234375 -52.78125 C 27.035156 -52.78125 29.039062 -52.8125 31.25 -52.875 C 33.46875 -52.9375 35.679688 -53 37.890625 -53.0625 C 40.109375 -53.132812 42.050781 -53.203125 43.71875 -53.265625 C 45.394531 -53.328125 46.585938 -53.390625 47.296875 -53.453125 L 49.3125 -53.9375 C 50.269531 -54.1875 51.179688 -54.3125 52.046875 -54.3125 C 52.921875 -54.3125 53.550781 -54.1875 53.9375 -53.9375 L 55.953125 -52.6875 C 56.273438 -52.488281 56.4375 -52.226562 56.4375 -51.90625 C 56.4375 -51.457031 56.335938 -51.023438 56.140625 -50.609375 C 55.953125 -50.191406 55.765625 -49.890625 55.578125 -49.703125 Z M 56.34375 -65.390625 L 48.734375 -65.6875 L 49.125 -69.734375 L 52.015625 -71.171875 C 52.460938 -71.429688 52.972656 -71.429688 53.546875 -71.171875 C 53.992188 -70.921875 54.617188 -70.566406 55.421875 -70.109375 C 56.222656 -69.660156 56.816406 -69.273438 57.203125 -68.953125 C 57.523438 -68.703125 57.59375 -68.316406 57.40625 -67.796875 Z M 48.546875 -53.546875 C 48.671875 -54.378906 48.734375 -55.597656 48.734375 -57.203125 C 48.734375 -58.816406 48.75 -60.425781 48.78125 -62.03125 C 48.8125 -63.632812 48.796875 -64.851562 48.734375 -65.6875 L 56.34375 -65.5 C 56.28125 -64.40625 56.148438 -63.101562 55.953125 -61.59375 C 55.765625 -60.082031 55.523438 -58.601562 55.234375 -57.15625 C 54.941406 -55.71875 54.671875 -54.515625 54.421875 -53.546875 Z M 59.625 -32.75 L 23.109375 -31.59375 L 23.984375 -35.734375 C 25.390625 -35.734375 27.328125 -35.765625 29.796875 -35.828125 C 32.273438 -35.890625 34.925781 -35.96875 37.75 -36.0625 C 40.582031 -36.164062 43.1875 -36.28125 45.5625 -36.40625 C 47.9375 -36.53125 49.703125 -36.625 50.859375 -36.6875 L 53.453125 -38.140625 C 54.546875 -38.140625 55.828125 -38.070312 57.296875 -37.9375 C 58.773438 -37.8125 59.929688 -37.6875 60.765625 -37.5625 C 61.535156 -37.363281 61.921875 -36.945312 61.921875 -36.3125 C 61.921875 -35.539062 61.804688 -34.878906 61.578125 -34.328125 C 61.359375 -33.785156 61.085938 -33.382812 60.765625 -33.125 C 60.515625 -32.875 60.132812 -32.75 59.625 -32.75 Z M 22.34375 -40.453125 L 15.5 -40.453125 L 15.5 -48.4375 C 14.863281 -49.019531 14.0625 -49.503906 13.09375 -49.890625 C 12.132812 -50.273438 11.109375 -50.597656 10.015625 -50.859375 L 10.40625 -52.59375 C 10.53125 -52.90625 10.847656 -53.0625 11.359375 -53.0625 C 12.265625 -53.0625 13.4375 -53.046875 14.875 -53.015625 C 16.320312 -52.984375 17.765625 -52.953125 19.203125 -52.921875 C 20.648438 -52.890625 21.757812 -52.84375 22.53125 -52.78125 L 22.34375 -48.921875 Z M 23.109375 -31.59375 C 20.285156 -31.53125 18.3125 -31.976562 17.1875 -32.9375 C 16.0625 -33.90625 15.5 -35.414062 15.5 -37.46875 L 15.5 -42.953125 L 22.34375 -42.953125 L 22.34375 -37.46875 C 22.34375 -36.3125 22.921875 -35.734375 24.078125 -35.734375 Z M 23.109375 -31.59375 "/></g></g></g></g></g></svg>