<svg xmlns="http://www.w3.org/2000/svg" width="1000" height="1000" viewBox="0 0 750 750"><defs><clipPath id="a"><path d="M0 0h246v66H0z"/></clipPath><clipPath id="b"><path d="M0 0h258v31H0z"/></clipPath><clipPath id="c"><path d="M0 0h162v139H0z"/></clipPath></defs><g fill="#fff" clip-path="url(#a)" transform="translate(162 336)"><path d="M33.74 37.064c-.085-.363-.155-.867-.218-1.515q-.093-.985-.187-2.125a58 58 0 0 1-.141-2.203 54 54 0 0 1-.031-1.75V17.533c-.313-.477-.79-.96-1.422-1.453a7.6 7.6 0 0 0-2.14-1.14l.546-1.641q.093-.312.688-.313c.695.031 1.5.125 2.406.281.914.149 1.797.32 2.64.516q1.279.3 2.094.656.687.284.64 1.235l-.171 2.687v9.781q0 1.285-.234 2.985a40 40 0 0 1-.594 3.297c-.242 1.062-.512 1.945-.813 2.64Zm-3.687-9.234q-.549.049-1.39.25-.832.205-1.375.422-1.048-.547-1.891-1.203a22 22 0 0 1-1.578-1.344.64.64 0 0 1-.14-.594l.468-.625 1.86.11q1.043.063 1.906.062Zm5.016-.14a19 19 0 0 0-1.734-.016q-1.001.017-1.891.047-.892.015-1.39.109l-2.141-2.922h2.14q1.325 0 2.719-.062 1.389-.061 2.297-.157ZM15.897 42.891q-.314-.452-1.094-.921a9 9 0 0 0-1.5-.766l.36-1.36a.33.33 0 0 1 .203-.203q.169-.06.531-.062.81-.045 2.047.062c.82.075 1.625.157 2.406.25q1.185.142 1.828.313.593.189.594.969l-.047 2.14Zm21.547 9.297H32.88V41.58l5.188.5v5.782q0 1.096-.188 2.328-.174 1.22-.437 2m-4.156-4.515-12.657.14v-3.093l12.657-.141ZM16.772 56.83a8.5 8.5 0 0 1-.687-3.234l-.188-10.704 5.328.235-.14 9.734q.043 1.64-.438 2.578-.469.936-1.016 1.39Zm21.75-4.234c.281.125.422.335.422.64q-.001 1.357-.547 2.047h-6.75q-2.05-.001-4.125.016-2.063.03-3.89.047-1.818.03-3.094.03l.28-3.187 13.438-.093 2.907-.094ZM20.585 19.36c-.243-.332-.594-.66-1.063-.984a7.4 7.4 0 0 0-1.531-.797l.5-1.36a.5.5 0 0 1 .234-.25c.094-.05.258-.078.5-.078q.81.048 2.016.235 1.217.187 2.36.422 1.137.221 1.718.484.64.19.594.953l-.125 2.422ZM6.022 21.408q-.33-.452-1.11-.922a7 7 0 0 0-1.484-.719l.36-1.359a.43.43 0 0 1 .203-.234c.101-.063.281-.094.531-.094q.81 0 2.016.094 1.218.095 2.39.25 1.185.157 1.828.343.593.143.594.954l-.094 2.093Zm.906 15.89c-.18-.456-.328-1.007-.453-1.656-.125-.656-.187-1.21-.187-1.671l-.266-12.563 5.234.219-.093 11.625q.045 1.675-.407 2.64-.455.955-1 1.407Zm18.078-4.874h-4.421V19.36l5.203.64-.141 7.876q0 1.142-.187 2.437-.189 1.3-.454 2.11m-3.64-5.516-11.11.14v-3.093l11.11-.094Zm4.594 5.797c.238.055.359.234.359.547 0 .418-.055.824-.156 1.219-.106.398-.246.671-.422.828h-5.672q-1.704 0-3.438.03-1.735.02-3.265.032a86 86 0 0 0-2.61.063l.266-3.141 10.297-.094 3.047-.078Zm6.921 8.875q-.361-.497-1.14-1a9 9 0 0 0-1.594-.828l.547-1.453a.38.38 0 0 1 .203-.22q.168-.092.484-.062.857.048 2.094.235 1.23.187 2.39.422 1.154.221 1.798.484.639.235.547.969l-.141 2.125ZM83.83 31.017l-20.359.313 1.422-2.828h2.297q1.389.001 3.047-.016 1.668-.013 3.297-.031 1.638-.03 3.03-.078a103 103 0 0 0 2.22-.094l1.359-.734q.996-.047 2.297.078 1.293.11 1.984.25.717.174.719.812 0 .831-.188 1.375-.175.55-.39.719-.235.234-.735.234m-20.359.313q-2.003-.047-2.875-.844-.86-.797-.86-2.484v-2.219h5.329v1.86q-.002.86.875.859Zm1.594-4.375h-5.328v-1.766a5.3 5.3 0 0 0-1.157-.843 9.6 9.6 0 0 0-1.484-.657l.234-1.14c.063-.22.227-.328.5-.328q.903 0 2.344.03 1.436.018 2.844.095 1.419.062 2.14.156l-.093 2.64Zm13.484-8.047h-2.078q-1.345.001-2.984.031-1.627.019-3.219.032-1.596.017-2.828.046-1.236.017-1.781.063c-.512.031-1.172.117-1.985.25q-1.206.204-2.156.437-1.142-.545-2.219-1.265a22 22 0 0 1-1.922-1.469q-.28-.265-.14-.594l.375-.64q.997.187 2.422.328 1.434.14 2.312.14h2.281q1.622 0 3.672-.046l4.125-.094q2.074-.046 3.703-.063a63 63 0 0 0 2.422-.078Zm4.594-.328-5.594.328.906-2.922 1.782-.765q.45-.187.906 0 .544.222 1.36.609.824.393 1.234.61.358.281.093.78Zm-5.734 3.594q.092-.359.109-1.016.03-.654.047-1.297.03-.638-.016-.953l5.594-.422q-.096.786-.438 1.922-.327 1.144-.656 1.766Zm5.328 2.734-18.578.234v-2.64h2.078q1.295.001 2.843-.016 1.546-.03 3.063-.047 1.529-.03 2.734-.078 1.218-.046 1.797-.094l1.469-.359q1.358-.28 2.172-.281.825 0 1.328.281l1.328.688c.238.117.36.296.36.546q0 .55-.188 1.047-.174.503-.406.719m3.375 7.797q.95.033 2.062.172 1.123.14 2.14.328 1.03.174 1.579.406c.508.18.766.512.766 1q-.001.768-.454 1.438-.455.655-.906.843-.549-.093-1.672-.14a85 85 0 0 0-2.25-.063 77 77 0 0 0-1.859-.031q-.785.001-2.719.031-1.922.018-4.5.047-2.58.017-5.328.047-2.753.016-5.312.063-2.549.046-4.375.093c-1.211.024-2.04.047-2.485.078a18 18 0 0 0-1.578.22q-.984.158-1.969.359-.971.203-1.609.39a14.6 14.6 0 0 1-2.734-1.36 24 24 0 0 1-2.36-1.702.53.53 0 0 1-.14-.625l.406-.782q1.373.188 2.969.329 1.593.126 2.859.171h2.281q1.64 0 3.906-.015 2.28-.03 4.875-.047 2.608-.03 5.204-.078 2.59-.045 4.906-.078 2.326-.047 3.984-.11 1.67-.076 2.344-.125Zm-1.235 23.89-20.172.141 1.547-3h8.281q1.56-.001 2.907-.031a56 56 0 0 0 2.203-.063l1.453-.734q1.043-.001 2.39.11 1.342.123 2.079.312c.476.113.719.414.719.906q-.002.764-.204 1.328-.203.576-.39.766-.222.265-.813.266m-20.172.141q-2.36-.047-3.328-.89-.953-.845-.953-2.563v-2.281h5.328v1.86q-.002.873.828.874Zm1.047-4.734h-5.328v-1.906a5.5 5.5 0 0 0-1.14-.844 7 7 0 0 0-1.454-.625l.188-1.172q.091-.282.547-.281c.57 0 1.328.011 2.265.03q1.42.018 2.829.063 1.404.048 2.187.141l-.094 2.813Zm13.032-8.11h-4.907q-1.61.001-3.203.032c-1.062.011-2.008.027-2.828.047q-1.237.015-1.766.062a19 19 0 0 0-1.968.25q-1.19.204-2.094.438a20 20 0 0 1-2.172-1.266 17 17 0 0 1-1.875-1.469q-.28-.265-.14-.547l.359-.687q1.014.187 2.39.328 1.388.127 2.266.125h2.266q1.591.001 3.64-.016 2.063-.013 4.078-.031 2.03-.03 3.625-.078a76 76 0 0 0 2.329-.094Zm4.5-.218-5.282.172.735-2.86 1.672-.734q.373-.171.875 0 .498.187 1.359.562.872.362 1.234.532.31.235.141.78Zm-5.375 3.547q.044-.311.062-1 .03-.688.047-1.344.031-.657-.016-1.031l5.282-.172q-.048.719-.375 1.843-.316 1.113-.532 1.704Zm5.109 2.828-17.766.172v-2.813h1.938q1.2.001 2.64-.016 1.436-.03 2.86-.03 1.435 0 2.547-.016a34 34 0 0 0 1.718-.079l1.36-.312q2.466-.545 3.656.047l1.266.578q.358.235.36.547c0 .398-.071.777-.204 1.14-.137.368-.262.625-.375.782m-7.563-7.657q-.281-.762-.421-1.953a20 20 0 0 1-.125-2.093v-2.97h5.093v1.97q0 1.36-.359 2.78-.362 1.409-.906 2.266ZM63.94 42.8q-.284-.81-.438-1.97a16 16 0 0 1-.156-2.124v-3h5.14v2.047q0 1.33-.374 2.765-.362 1.425-.953 2.282Zm46.933-19.845q-.315-.687-1.078-1.39a7.5 7.5 0 0 0-1.61-1.157l.688-1.375q.171-.265.688-.219.996.096 2.297.407 1.294.316 2.5.703 1.2.391 1.843.75c.508.273.766.636.766 1.093ZM99.076 43.892q-.222-.215.094-.578a50 50 0 0 0 5.547-6.593q2.42-3.436 3.984-6.954c1.051-2.351 1.774-4.625 2.172-6.812l6.094-1.188q-.001.738-.125 1.235-.738 3.69-2.875 7.562-2.143 3.862-5.516 7.485-3.364 3.626-7.78 6.578-.363.187-.673 0Zm20.86-1.718-9.063-10.297 7.828 3.469 2.641 1.078q.592.878 1.234 2.078.638 1.206.954 1.937.28.644.296 1.094.013.456-.109.766c-.219.43-.594.734-1.125.922q-.798.27-1.39.046-.268-.093-.641-.437a7 7 0 0 1-.625-.656m-1.235-6.828-.359.406-7.469-3.875 1.828-2.828Zm21.5-.329-8.39.235v-3.188l3.734-.234 1.469-.953q.996-.046 2.25.031 1.247.064 1.844.203c.601.149.922.496.953 1.047q.093.768-.094 1.438-.174.657-.453.921-.188.283-.594.391-.409.11-.719.11m-11.843 22.047a33 33 0 0 1-.203-1.968q-.111-1.314-.204-2.891a76 76 0 0 1-.125-2.969q-.016-1.419-.015-2.234V17.58q-.549-.762-1.531-1.5a8.6 8.6 0 0 0-2.204-1.188l.547-1.593a.9.9 0 0 1 .203-.22c.07-.062.235-.093.485-.093.726.031 1.547.125 2.453.281q1.373.223 2.687.516 1.326.3 2.141.656.733.284.688 1.235l-.235 2.765v26.922q-.002 1.126-.11 2.656a46 46 0 0 1-.343 3.172 58 58 0 0 1-.547 3.188q-.314 1.546-.734 2.687Zm55.277-21.219q.95 0 2.062.14 1.123.127 2.141.313c.687.117 1.21.25 1.578.406q.764.269.766 1.047-.001.862-.453 1.578-.456.704-.907.875-.549-.077-1.672-.125a85 85 0 0 0-2.25-.063 77 77 0 0 0-1.859-.03q-.785 0-2.719.03-1.922.018-4.484.047-2.55.018-5.297.047-2.752.016-5.281.063c-1.688.023-3.149.047-4.375.078q-1.845.046-2.531.094c-.387.03-.918.101-1.594.203q-1 .157-1.985.343-.971.188-1.609.36-1.361-.498-2.734-1.406a18.5 18.5 0 0 1-2.36-1.829q-.28-.262-.14-.578l.406-.828q1.373.234 2.969.375a66 66 0 0 0 2.86.172h2.296q1.623.001 3.89-.016 2.28-.03 4.876-.078c1.738-.031 3.472-.054 5.203-.078 1.726-.031 3.36-.062 4.89-.094q2.298-.046 3.985-.093a66 66 0 0 0 2.36-.094ZM167.104 56.83q-.14-.738-.235-1.969l-.172-2.61a88 88 0 0 1-.14-2.655 59 59 0 0 1-.047-2.094v-9.156h5.281v7.562c0 .7-.055 1.543-.156 2.531q-.158 1.47-.39 3.047a34 34 0 0 1-.548 2.953q-.314 1.39-.687 2.39Zm-10.11-36.828q-.456-.546-1.234-1.031a7.2 7.2 0 0 0-1.594-.75l.422-1.5q.076-.282.547-.282c.601 0 1.344.032 2.219.094q1.325.094 2.687.234a24 24 0 0 1 2.328.313l.094 3.234Zm1.547 13.703a24 24 0 0 1-.437-1.547 15 15 0 0 1-.297-1.64l-.813-10.563 5.516-.375v10.25c.031.906-.055 1.652-.25 2.234a5.4 5.4 0 0 1-.938 1.64Zm17.438-13.531a129 129 0 0 0-4.47-.016q-2.36.017-4.702.063-2.345.046-4.438.093l-.047-3.234h3.032q1.841 0 3.859-.047 2.029-.046 3.875-.094 1.842-.047 2.984-.093Zm5.421-.172-5.562.172.094-3.282 2.14-.953q.498-.17.953 0 .593.237 1.579.672.982.422 1.39.703.31.175.14.719Zm-1.406 8.5h-4.422l.266-8.328 5.562-.22a68 68 0 0 1-.546 4.329 48 48 0 0 1-.86 4.219m.672 3.328-18.625.094.14-3.235q1.373.001 3.079.032 1.7.016 3.469.015 1.78 0 3.39-.047 1.623-.047 2.766-.093l1.453-.36q2.063-.733 3.281.047l1.328.688q.406.22.407.671-.002.692-.204 1.313-.203.61-.484.875m35.559-10.922q-.317-.64-1.032-1.297a8.4 8.4 0 0 0-1.515-1.125l.78-1.312q.217-.358.72-.282 1.185.189 2.453.579 1.278.393 2.469.828 1.184.422 1.812.875.827.502.828 1.14ZM199.74 37.939q-.176-.326.188-.5 3.966-2.325 7.172-5.015 3.198-2.684 5.53-5.625 2.328-2.937 3.595-5.891l6.515-.594q-.047.767-.281 1.282-1.594 3.455-4.688 6.765-3.093 3.3-7.359 6c-2.836 1.805-5.95 3.328-9.344 4.578q-.407.14-.593-.047Zm32.016-1.547-15.75-8.562 11.61 2.36 3.093.374q.95.58 2.016 1.453a22 22 0 0 1 1.671 1.454q.905 1.048.86 1.734-.047.69-.61 1.219-.563.515-1.203.515a1.8 1.8 0 0 1-.828-.14 8 8 0 0 1-.86-.407m-4.14-6.203-.188.328-11.422-2.687 2.14-2.516Zm-11.938 9.422q-.363-.499-1.141-.969a7.6 7.6 0 0 0-1.547-.75l.422-1.421a.28.28 0 0 1 .14-.188q.123-.077.532-.078.827-.046 2.094.078c.851.074 1.687.164 2.5.266q1.23.157 1.828.343.733.222.594.954l-.235 2.406Zm5.015 8.016h-4.968l-.047-8.016 5.187.64Zm11.703-2.219q.949.033 2.063.172c.75.094 1.46.203 2.14.328.688.117 1.211.25 1.579.406.507.18.765.528.765 1.047q0 .861-.453 1.547-.456.69-.906.906-.549-.091-1.672-.125a85 85 0 0 0-2.25-.062 77 77 0 0 0-1.86-.031q-.785 0-2.718.03-1.922.019-4.484.032-2.55.017-5.297.047a448 448 0 0 0-5.282.062q-2.533.048-4.375.094-1.845.047-2.53.094-.582.048-1.595.203-1.001.157-1.984.344-.972.188-1.61.36-1.361-.5-2.734-1.407a18.5 18.5 0 0 1-2.36-1.828.53.53 0 0 1-.14-.625l.407-.781c.914.156 1.906.28 2.968.375q1.594.126 2.86.171h2.297q1.623 0 3.89-.015 2.28-.03 4.875-.078l5.203-.094c1.727-.031 3.36-.055 4.89-.078q2.298-.047 3.985-.094a66 66 0 0 0 2.36-.094Zm0 0"/></g><g fill="#fff" clip-path="url(#b)" transform="translate(155 400)"><path d="m1.144 24.137.016-.688 3.11-.265h.296l-.015.953Zm2.079 0q.046-1.811.046-3.594V12.09c0-1.227-.015-2.438-.046-3.625h2.656c-.024 1.187-.04 2.398-.047 3.625v8.422q.011 1.798.047 3.625Zm1.328 0 .015-.766h7.594l-1.234.61.953-4.235h1.015l-.062 4.39ZM1.144 9.12v-.656h6.922v.656l-3.172.281H4.27Zm15.458 15.017v-.688l2.11-.25h.374l2.313.25v.688Zm1.484 0 5.266-15.781h1.578l5.36 15.78h-2.58L23.118 9.982h.437l-.062.296-4.407 13.86Zm2.344-5.203.14-.703h6.626l.125.703Zm4.719 5.203v-.688l2.875-.265h.875l2.89.265v.688Zm13.571.109L34.189 8.465h2.672l3.53 13.39h-.374l.078-.328 3.844-13.062h1.406l3.922 13.469h-.375l.078-.36 3.484-13.109h1.016l-4.453 15.781h-1.36l-4.015-13.25h.406l-.11.297-3.859 12.953Zm-6-15.125v-.656h6.469v.656l-2.953.281h-.594Zm8.844 0v-.656h6.36v.656l-2.798.281h-.937Zm8.562 0v-.656h5.157v.656l-2.329.281h-.5Zm24.309 15.406a7 7 0 0 1-2.75-.546 6.9 6.9 0 0 1-2.313-1.594q-1.003-1.043-1.578-2.578-.563-1.53-.563-3.516 0-1.968.563-3.484.575-1.53 1.578-2.578a6.9 6.9 0 0 1 2.313-1.61 7 7 0 0 1 2.75-.547q1.452.002 2.734.532a6.6 6.6 0 0 1 2.297 1.593q.997 1.066 1.578 2.594.576 1.519.578 3.5-.002 1.956-.578 3.5-.581 1.535-1.578 2.594a6.8 6.8 0 0 1-2.297 1.594 6.9 6.9 0 0 1-2.734.546m0-.78q1.125 0 1.968-.563c.563-.383 1.024-.914 1.391-1.594q.562-1.015.844-2.375.28-1.373.281-2.922 0-1.559-.281-2.906-.282-1.341-.844-2.36-.549-1.03-1.39-1.609-.845-.576-1.97-.578-1.125.002-1.968.578c-.563.387-1.04.922-1.422 1.61q-.562 1.018-.844 2.359a14.2 14.2 0 0 0-.281 2.906c0 1.031.094 2.008.281 2.922q.282 1.36.844 2.375c.383.68.86 1.21 1.422 1.594q.843.562 1.969.562m11.629.391v-.688l3.125-.265h.75l3.218.265v.688Zm2.078 0q.046-1.81.047-3.625v-8.406c0-1.22-.016-2.43-.047-3.641h2.656a271 271 0 0 0-.047 3.64v8.344q.011 1.863.047 3.688Zm1.328-7.61v-.734h5.265v.734Zm5.03 2.283-.297-2.375v-.594l.297-2.281h.875v5.25Zm-8.436-9.69v-.656h3.406v.937h-.281Zm10.812 3.328-.922-3.906 1.297.688H89.47v-.766h8.36l.062 3.984Zm5.331 11.689v-.688l3.125-.265h.75l3.219.265v.688Zm2.078 0q.047-1.81.047-3.625v-8.406c0-1.22-.015-2.43-.047-3.641h2.657a271 271 0 0 0-.047 3.64v8.344q.01 1.863.047 3.688Zm1.328-7.61v-.734h5.266v.734Zm5.032 2.282-.297-2.375v-.594l.297-2.281h.875v5.25Zm-8.438-9.688v-.656h3.406v.937h-.28Zm10.813 3.328-.922-3.906 1.297.688h-7.782v-.766h8.36l.062 3.984Zm5.33 11.688v-.688l3.126-.265h.531l3.156.265v.688Zm2.079 0q.047-1.81.047-3.625.013-1.828.015-3.672v-1.078q-.002-1.84-.015-3.656c0-1.22-.016-2.43-.047-3.641h2.672a182 182 0 0 0-.063 3.625v8.391c.008 1.218.032 2.437.063 3.656ZM118.35 9.12v-.656h6.812v.656l-3.156.281h-.531Zm19.343 15.407c-1.168 0-2.242-.18-3.218-.53a7.7 7.7 0 0 1-2.563-1.579q-1.096-1.03-1.687-2.547c-.399-1.008-.594-2.176-.594-3.5q0-1.952.61-3.5.621-1.547 1.718-2.625a7.2 7.2 0 0 1 2.563-1.625 9.2 9.2 0 0 1 3.187-.547c.926 0 1.734.102 2.422.297q1.044.299 2.078.906v3.594h-1.062l-.938-4.031 1.344.453v.719q-.862-.61-1.672-.89a5.4 5.4 0 0 0-1.781-.282q-1.657 0-2.97.844c-.866.562-1.546 1.398-2.046 2.5q-.75 1.657-.75 4.125 0 2.472.75 4.125.748 1.657 2.047 2.484 1.293.814 2.969.813c.632 0 1.238-.086 1.812-.266q.873-.265 1.735-.922v.734l-1.297.407.968-3.969h1.063v3.594q-1.05.596-2.188.906c-.75.207-1.586.312-2.5.312m9.405-.39v-.688l3.125-.265h.281v.953Zm2.078 0q.048-1.81.047-3.625v-8.406c0-1.22-.015-2.43-.047-3.641h2.657a271 271 0 0 0-.047 3.64v8.344q.01 1.863.047 3.688Zm1.328 0v-.766h8.079l-1.282.64.922-3.968h1l-.062 4.094Zm0-7.61v-.734h5.204v.734Zm5.016 2.172-.328-2.375v-.437l.328-2.328h.844v5.14Zm-8.422-9.578v-.656h3.406v.937h-.28Zm10.703 3.328-.875-3.906 1.25.688h-7.672v-.766h8.25l.094 3.984Zm16.678 11.688v-.688l3.28-.265h.688l3.329.265v.688Zm2.312 0q.045-1.81.063-3.625c.007-1.219.015-2.442.015-3.672v-1.078c0-1.227-.008-2.445-.015-3.656-.012-1.22-.032-2.43-.063-3.641h2.656a265 265 0 0 0-.046 3.625v8.391q.011 1.827.046 3.656Zm-5.437-11.406.14-4.266h13.266l.14 4.266h-1.046l-.953-4.266 1.187.766h-11.937l1.218-.766-.984 4.266Zm17.714 11.406v-.688l3.125-.265h.562l3.125.265v.688Zm2.078 0q.047-1.81.047-3.625v-8.406c0-1.22-.016-2.43-.047-3.641h2.625a182 182 0 0 0-.063 3.656v8.344c.008 1.23.032 2.453.063 3.672Zm10.234.25c-.804 0-1.414-.133-1.828-.39q-.61-.404-.781-1.376l-.906-3.375c-.137-.594-.309-1.07-.516-1.437a1.84 1.84 0 0 0-.812-.797q-.517-.248-1.438-.25h-2.61v-.703h3.048q1.199.001 1.984-.485c.531-.32.93-.75 1.203-1.28q.406-.797.406-1.798-.002-1.559-.906-2.422-.892-.874-2.703-.875h-3.047v-.734h3.563c1.78 0 3.144.352 4.093 1.047q1.42 1.031 1.422 2.953 0 1.032-.547 1.906-.532.878-1.703 1.469-1.159.581-3.015.687v-.218q1.464.063 2.296.437.825.376 1.235 1.063.42.675.672 1.718l1.109 4.313-1.219-.578 3.094.187v.688q-.469.106-.937.172-.47.076-1.157.078M189.068 9.12v-.656h3.406v.937h-.281Zm24.972 15.407q-1.72-.001-3.03-.625-1.315-.638-2.032-2.062-.72-1.42-.719-3.766v-2.406c0-1.195-.008-2.398-.015-3.61a534 534 0 0 0-.047-3.593h2.64q-.035 1.769-.047 3.578v5.719q-.002 1.957.454 3.14.466 1.19 1.343 1.72.89.515 2.125.515 2.046.002 3.094-1.297 1.043-1.313 1.031-4.313l-.047-9.062h.938l-.063 9.36q-.016 3.41-1.468 5.062-1.44 1.64-4.157 1.64m-7.796-15.406v-.656h6.78v.656l-3.171.281h-.516Zm10.015 0v-.656h5.61v.656l-2.375.281h-.532Zm14.425 15.406a9.4 9.4 0 0 1-2.578-.359c-.836-.226-1.54-.531-2.11-.906l.126-3.375h1.03l.907 3.828-1.172-.531-.187-.75q1.043.752 1.86 1 .808.251 1.921.25 1.655 0 2.64-.75.985-.763.985-2.188-.001-.748-.266-1.297c-.18-.375-.468-.707-.875-1q-.596-.451-1.656-.875l-.937-.406q-1.988-.874-3.032-2-1.048-1.124-1.047-2.875-.002-1.373.688-2.312.702-.937 1.906-1.422c.801-.32 1.703-.485 2.703-.485.82 0 1.563.106 2.22.313a7.4 7.4 0 0 1 1.827.86l-.125 3.218h-1.047l-.875-3.64 1.235.53.125.797q-.88-.702-1.547-.984-.674-.28-1.563-.281-1.452 0-2.39.703-.924.705-.922 2.031-.001 1.172.672 1.875.667.691 1.875 1.219l1.015.437q1.624.69 2.563 1.391.936.69 1.328 1.516.406.815.406 1.968 0 1.347-.687 2.36-.691 1.003-1.969 1.578-1.266.562-3.047.562m12.613-.39v-.688l3.281-.265h.688l3.328.265v.688Zm2.312 0q.047-1.81.063-3.625.014-1.828.015-3.672v-1.078q-.001-1.84-.015-3.656c-.012-1.22-.031-2.43-.063-3.641h2.657q-.036 1.782-.047 3.625v8.391q.01 1.827.047 3.656Zm-5.437-11.406.14-4.266h13.266l.14 4.266h-1.046l-.953-4.266 1.187.766H240.97l1.218-.766-.984 4.266Zm0 0"/></g><g fill="#fff" clip-path="url(#c)" transform="translate(414 305)"><path d="M71.891 96.945q-.203-1.454-.296-3.61-.094-2.169-.141-4.531l-.094-4.625a192 192 0 0 1-.047-3.906V36.257c-.843-.957-1.992-1.867-3.437-2.734a24 24 0 0 0-4.656-2.172l.765-2.313c.063-.32.414-.484 1.063-.484q1.734.002 4.093.437a93 93 0 0 1 4.563.97q2.217.516 3.578 1.093 1.155.392 1.156 1.937l-.297 5v39.875q-.001 3.375-.25 6.891a67 67 0 0 1-.765 6.64q-.517 3.129-1.203 5.548Zm10.875 20.312-41.406.188.953-4.141h14.875q4.485 0 8.375-.094 3.904-.094 6.032-.187l3.078-1.735q2.121 0 4.906.188 2.796.201 4.156.578 1.249.2 1.25 1.36-.002 1.247-.344 2.156-.329.92-.718 1.203-.394.482-1.157.484M34.22 44.835q-.674-1.343-2.22-2.844c-1.023-1-2.14-1.816-3.359-2.453l1.157-2.03q.279-.376 1.062-.282 1.734.19 3.797.86c1.383.448 2.688.948 3.906 1.5q1.828.814 2.688 1.39 1.156.673 1.156 1.937ZM5.907 85.288q-.282-.481.203-.968 7.014-5.778 12.656-12.516c3.758-4.5 6.97-9.055 9.625-13.672q3.999-6.936 5.829-13.297l8.187-1.922q0 .581-.047 1.11a6 6 0 0 1-.14.906q-2.128 7.314-6.844 14.734c-3.149 4.95-7.031 9.672-11.656 14.172-4.618 4.492-9.844 8.625-15.688 12.406q-.675.393-.969 0Zm48.36-4.922-21.58-20.609 17.532 9.64 4.14 1.532q1.247 1.455 2.64 3.484 1.406 2.017 2.079 3.36.951 1.828.578 2.703-.3.768-1.312 1.297-1.002.532-1.875.234-.488-.093-1.063-.578-.58-.481-1.14-1.063M50.22 69.398l-.485.578-17.047-10.219 2.5-3.75Zm-10.313 32.547h-7.031v-6.266c-.774-.633-1.766-1.191-2.985-1.672a30 30 0 0 0-3.75-1.219l.47-2.11q.106-.575.968-.577 1.641 0 3.75.14c1.414.094 2.797.196 4.14.297q2.028.141 3.188.422 1.437.392 1.438 1.938l-.188 4.234Zm1.547 15.5q-4.722 0-6.656-1.735-1.923-1.722-1.922-5.765v-8.672h7.031v9.53q-.002 2.499 2.406 2.5Zm60.469-18q-1.44.095-3.859.625-2.408.534-3.656 1.015-2.502-.965-5.11-2.5-2.594-1.546-4.515-3.094-.58-.387-.297-1.062l.484-1.156q2.608.487 5.438.687a82 82 0 0 0 5.36.188Zm52.297-8q-.002.675-.765.875-3.562.862-8.625 1.78-5.05.909-10.782 1.782-5.738.861-11.562 1.594-5.83.721-11.172 1.25c-3.562.344-6.695.586-9.39.719l-6.157-5.297q4.325-.093 10.11-.438c3.851-.226 7.91-.5 12.171-.812q6.404-.481 12.813-1.157 6.404-.669 12.094-1.39 5.684-.732 9.922-1.594.375-.105.656.047a.78.78 0 0 1 .406.422Zm-33.218 3.765h-6.563V77.007h6.563Zm31.968 25.906a200 200 0 0 1-.187-3.859l-.203-4.922q-.095-2.59-.14-5a210 210 0 0 1-.048-3.937v-67.14q-1.254-1.436-3.422-2.735-2.157-1.312-4.765-2.172l.765-2.313a1.1 1.1 0 0 1 .297-.328c.125-.101.38-.156.766-.156q1.734.002 4.094.437 2.356.44 4.625.97 2.26.516 3.609 1.093 1.25.392 1.156 1.937l-.281 5.094v62.89c0 1.419-.055 2.997-.156 4.735a106 106 0 0 1-.438 5.375 79 79 0 0 1-.719 5.344 81 81 0 0 1-.906 4.687Zm-22.922-76.093q-1.346 0-3.906.047c-1.699.03-3.578.085-5.64.156q-3.081.094-6.157.14-3.081.048-5.39.141-2.314.094-3.282.188-1.253.095-3.328.484-2.063.394-3.687.969a27.6 27.6 0 0 1-3.86-1.828 27 27 0 0 1-3.28-2.22q-.582-.386-.376-.968l.672-1.156q1.733.393 4.047.594 2.309.187 3.937.187h4.25q2.984 0 6.782-.094 3.81-.107 7.656-.203 3.855-.093 6.937-.234c2.051-.102 3.594-.188 4.625-.25Zm6.266 15.984-34.297.781v-3.86h3.953q2.7 0 6.016-.093l6.64-.187c2.22-.07 4.16-.14 5.829-.203q2.512-.094 3.578-.188l2.015-.484q1.435-.375 2.735-.375 1.312 0 1.89.375l2.016 1.25q.482.3.484.78-.002.676-.296 1.298-.281.626-.563.906m.766-15.687-7.61-.297.391-4.047 2.89-1.438q.67-.387 1.532 0 .667.376 1.875 1.063 1.2.675 1.781 1.156.482.376.203 1.156Zm-7.797 11.843q.187-1.248.187-3.656 0-2.42.047-4.828.047-2.402-.047-3.656l7.61.187a56 56 0 0 1-.39 3.906 61 61 0 0 1-.72 4.438 74 74 0 0 1-.812 3.61ZM140.36 77.96l-36.516 1.156.875-4.14q2.11 0 5.813-.094 3.716-.093 7.953-.234c2.832-.102 5.437-.22 7.812-.344l5.297-.281 2.594-1.453q1.64.002 3.844.203 2.214.188 3.469.375 1.156.3 1.156 1.25-.002 1.159-.344 1.984-.33.815-.812 1.203c-.25.25-.633.375-1.141.375m-37.281-7.703h-6.844v-7.984q-.955-.873-2.406-1.453a22 22 0 0 0-3.078-.97l.39-1.734q.187-.468.953-.468 1.36 0 3.516.047l4.328.093q2.168.047 3.328.14l-.187 3.86Zm.765 8.86c-2.824.062-4.797-.383-5.922-1.344-1.125-.97-1.687-2.477-1.687-4.532v-5.484h6.844v5.484q0 1.735 1.734 1.735Zm0 0"/></g></svg>